<?xml version="1.0" encoding="utf-8"?>
<svg xmlns="http://www.w3.org/2000/svg" xmlns:xlink="http://www.w3.org/1999/xlink" width="600" height="400" viewBox="0 0 2400 1600">
<defs>
  <clipPath id="clip060">
    <rect x="0" y="0" width="2400" height="1600"/>
  </clipPath>
</defs>
<path clip-path="url(#clip060)" d="
M0 1600 L2400 1600 L2400 0 L0 0  Z
  " fill="#ffffff" fill-rule="evenodd" fill-opacity="1"/>
<defs>
  <clipPath id="clip061">
    <rect x="480" y="0" width="1681" height="1600"/>
  </clipPath>
</defs>
<path clip-path="url(#clip060)" d="
M172.015 1423.18 L2352.76 1423.18 L2352.76 47.2441 L172.015 47.2441  Z
  " fill="#ffffff" fill-rule="evenodd" fill-opacity="1"/>
<defs>
  <clipPath id="clip062">
    <rect x="172" y="47" width="2182" height="1377"/>
  </clipPath>
</defs>
<polyline clip-path="url(#clip062)" style="stroke:#000000; stroke-linecap:butt; stroke-linejoin:round; stroke-width:2; stroke-opacity:0.1; fill:none" points="
  172.015,1423.18 172.015,47.2441 
  "/>
<polyline clip-path="url(#clip062)" style="stroke:#000000; stroke-linecap:butt; stroke-linejoin:round; stroke-width:2; stroke-opacity:0.1; fill:none" points="
  608.163,1423.18 608.163,47.2441 
  "/>
<polyline clip-path="url(#clip062)" style="stroke:#000000; stroke-linecap:butt; stroke-linejoin:round; stroke-width:2; stroke-opacity:0.1; fill:none" points="
  1044.31,1423.18 1044.31,47.2441 
  "/>
<polyline clip-path="url(#clip062)" style="stroke:#000000; stroke-linecap:butt; stroke-linejoin:round; stroke-width:2; stroke-opacity:0.1; fill:none" points="
  1480.46,1423.18 1480.46,47.2441 
  "/>
<polyline clip-path="url(#clip062)" style="stroke:#000000; stroke-linecap:butt; stroke-linejoin:round; stroke-width:2; stroke-opacity:0.1; fill:none" points="
  1916.61,1423.18 1916.61,47.2441 
  "/>
<polyline clip-path="url(#clip062)" style="stroke:#000000; stroke-linecap:butt; stroke-linejoin:round; stroke-width:2; stroke-opacity:0.1; fill:none" points="
  2352.76,1423.18 2352.76,47.2441 
  "/>
<polyline clip-path="url(#clip060)" style="stroke:#000000; stroke-linecap:butt; stroke-linejoin:round; stroke-width:4; stroke-opacity:1; fill:none" points="
  172.015,1423.18 2352.76,1423.18 
  "/>
<polyline clip-path="url(#clip060)" style="stroke:#000000; stroke-linecap:butt; stroke-linejoin:round; stroke-width:4; stroke-opacity:1; fill:none" points="
  172.015,1423.18 172.015,1404.28 
  "/>
<polyline clip-path="url(#clip060)" style="stroke:#000000; stroke-linecap:butt; stroke-linejoin:round; stroke-width:4; stroke-opacity:1; fill:none" points="
  608.163,1423.18 608.163,1404.28 
  "/>
<polyline clip-path="url(#clip060)" style="stroke:#000000; stroke-linecap:butt; stroke-linejoin:round; stroke-width:4; stroke-opacity:1; fill:none" points="
  1044.31,1423.18 1044.31,1404.28 
  "/>
<polyline clip-path="url(#clip060)" style="stroke:#000000; stroke-linecap:butt; stroke-linejoin:round; stroke-width:4; stroke-opacity:1; fill:none" points="
  1480.46,1423.18 1480.46,1404.28 
  "/>
<polyline clip-path="url(#clip060)" style="stroke:#000000; stroke-linecap:butt; stroke-linejoin:round; stroke-width:4; stroke-opacity:1; fill:none" points="
  1916.61,1423.18 1916.61,1404.28 
  "/>
<polyline clip-path="url(#clip060)" style="stroke:#000000; stroke-linecap:butt; stroke-linejoin:round; stroke-width:4; stroke-opacity:1; fill:none" points="
  2352.76,1423.18 2352.76,1404.28 
  "/>
<path clip-path="url(#clip060)" d="M149.399 1454.1 Q145.788 1454.1 143.959 1457.66 Q142.154 1461.2 142.154 1468.33 Q142.154 1475.44 143.959 1479.01 Q145.788 1482.55 149.399 1482.55 Q153.033 1482.55 154.839 1479.01 Q156.668 1475.44 156.668 1468.33 Q156.668 1461.2 154.839 1457.66 Q153.033 1454.1 149.399 1454.1 M149.399 1450.39 Q155.209 1450.39 158.265 1455 Q161.344 1459.58 161.344 1468.33 Q161.344 1477.06 158.265 1481.67 Q155.209 1486.25 149.399 1486.25 Q143.589 1486.25 140.51 1481.67 Q137.455 1477.06 137.455 1468.33 Q137.455 1459.58 140.51 1455 Q143.589 1450.39 149.399 1450.39 Z" fill="#000000" fill-rule="evenodd" fill-opacity="1" /><path clip-path="url(#clip060)" d="M169.561 1479.7 L174.445 1479.7 L174.445 1485.58 L169.561 1485.58 L169.561 1479.7 Z" fill="#000000" fill-rule="evenodd" fill-opacity="1" /><path clip-path="url(#clip060)" d="M194.63 1454.1 Q191.019 1454.1 189.191 1457.66 Q187.385 1461.2 187.385 1468.33 Q187.385 1475.44 189.191 1479.01 Q191.019 1482.55 194.63 1482.55 Q198.265 1482.55 200.07 1479.01 Q201.899 1475.44 201.899 1468.33 Q201.899 1461.2 200.07 1457.66 Q198.265 1454.1 194.63 1454.1 M194.63 1450.39 Q200.441 1450.39 203.496 1455 Q206.575 1459.58 206.575 1468.33 Q206.575 1477.06 203.496 1481.67 Q200.441 1486.25 194.63 1486.25 Q188.82 1486.25 185.742 1481.67 Q182.686 1477.06 182.686 1468.33 Q182.686 1459.58 185.742 1455 Q188.82 1450.39 194.63 1450.39 Z" fill="#000000" fill-rule="evenodd" fill-opacity="1" /><path clip-path="url(#clip060)" d="M586.346 1454.1 Q582.735 1454.1 580.906 1457.66 Q579.101 1461.2 579.101 1468.33 Q579.101 1475.44 580.906 1479.01 Q582.735 1482.55 586.346 1482.55 Q589.98 1482.55 591.786 1479.01 Q593.615 1475.44 593.615 1468.33 Q593.615 1461.2 591.786 1457.66 Q589.98 1454.1 586.346 1454.1 M586.346 1450.39 Q592.156 1450.39 595.212 1455 Q598.29 1459.58 598.29 1468.33 Q598.29 1477.06 595.212 1481.67 Q592.156 1486.25 586.346 1486.25 Q580.536 1486.25 577.457 1481.67 Q574.402 1477.06 574.402 1468.33 Q574.402 1459.58 577.457 1455 Q580.536 1450.39 586.346 1450.39 Z" fill="#000000" fill-rule="evenodd" fill-opacity="1" /><path clip-path="url(#clip060)" d="M606.508 1479.7 L611.392 1479.7 L611.392 1485.58 L606.508 1485.58 L606.508 1479.7 Z" fill="#000000" fill-rule="evenodd" fill-opacity="1" /><path clip-path="url(#clip060)" d="M625.605 1481.64 L641.924 1481.64 L641.924 1485.58 L619.98 1485.58 L619.98 1481.64 Q622.642 1478.89 627.225 1474.26 Q631.832 1469.61 633.012 1468.27 Q635.258 1465.74 636.137 1464.01 Q637.04 1462.25 637.04 1460.56 Q637.04 1457.8 635.096 1456.07 Q633.174 1454.33 630.073 1454.33 Q627.874 1454.33 625.42 1455.09 Q622.989 1455.86 620.212 1457.41 L620.212 1452.69 Q623.036 1451.55 625.489 1450.97 Q627.943 1450.39 629.98 1450.39 Q635.35 1450.39 638.545 1453.08 Q641.739 1455.77 641.739 1460.26 Q641.739 1462.39 640.929 1464.31 Q640.142 1466.2 638.036 1468.8 Q637.457 1469.47 634.355 1472.69 Q631.253 1475.88 625.605 1481.64 Z" fill="#000000" fill-rule="evenodd" fill-opacity="1" /><path clip-path="url(#clip060)" d="M1021.45 1454.1 Q1017.84 1454.1 1016.01 1457.66 Q1014.21 1461.2 1014.21 1468.33 Q1014.21 1475.44 1016.01 1479.01 Q1017.84 1482.55 1021.45 1482.55 Q1025.09 1482.55 1026.89 1479.01 Q1028.72 1475.44 1028.72 1468.33 Q1028.72 1461.2 1026.89 1457.66 Q1025.09 1454.1 1021.45 1454.1 M1021.45 1450.39 Q1027.26 1450.39 1030.32 1455 Q1033.4 1459.58 1033.4 1468.33 Q1033.4 1477.06 1030.32 1481.67 Q1027.26 1486.25 1021.45 1486.25 Q1015.64 1486.25 1012.56 1481.67 Q1009.51 1477.06 1009.51 1468.33 Q1009.51 1459.58 1012.56 1455 Q1015.64 1450.39 1021.45 1450.39 Z" fill="#000000" fill-rule="evenodd" fill-opacity="1" /><path clip-path="url(#clip060)" d="M1041.61 1479.7 L1046.5 1479.7 L1046.5 1485.58 L1041.61 1485.58 L1041.61 1479.7 Z" fill="#000000" fill-rule="evenodd" fill-opacity="1" /><path clip-path="url(#clip060)" d="M1069.53 1455.09 L1057.73 1473.54 L1069.53 1473.54 L1069.53 1455.09 M1068.3 1451.02 L1074.18 1451.02 L1074.18 1473.54 L1079.11 1473.54 L1079.11 1477.43 L1074.18 1477.43 L1074.18 1485.58 L1069.53 1485.58 L1069.53 1477.43 L1053.93 1477.43 L1053.93 1472.92 L1068.3 1451.02 Z" fill="#000000" fill-rule="evenodd" fill-opacity="1" /><path clip-path="url(#clip060)" d="M1457.76 1454.1 Q1454.15 1454.1 1452.32 1457.66 Q1450.52 1461.2 1450.52 1468.33 Q1450.52 1475.44 1452.32 1479.01 Q1454.15 1482.55 1457.76 1482.55 Q1461.4 1482.55 1463.2 1479.01 Q1465.03 1475.44 1465.03 1468.33 Q1465.03 1461.2 1463.2 1457.66 Q1461.4 1454.1 1457.76 1454.1 M1457.76 1450.39 Q1463.57 1450.39 1466.63 1455 Q1469.71 1459.58 1469.71 1468.33 Q1469.71 1477.06 1466.63 1481.67 Q1463.57 1486.25 1457.76 1486.25 Q1451.95 1486.25 1448.87 1481.67 Q1445.82 1477.06 1445.82 1468.33 Q1445.82 1459.58 1448.87 1455 Q1451.95 1450.39 1457.76 1450.39 Z" fill="#000000" fill-rule="evenodd" fill-opacity="1" /><path clip-path="url(#clip060)" d="M1477.92 1479.7 L1482.81 1479.7 L1482.81 1485.58 L1477.92 1485.58 L1477.92 1479.7 Z" fill="#000000" fill-rule="evenodd" fill-opacity="1" /><path clip-path="url(#clip060)" d="M1503.57 1466.44 Q1500.42 1466.44 1498.57 1468.59 Q1496.74 1470.74 1496.74 1474.49 Q1496.74 1478.22 1498.57 1480.39 Q1500.42 1482.55 1503.57 1482.55 Q1506.72 1482.55 1508.55 1480.39 Q1510.4 1478.22 1510.4 1474.49 Q1510.4 1470.74 1508.55 1468.59 Q1506.72 1466.44 1503.57 1466.44 M1512.86 1451.78 L1512.86 1456.04 Q1511.1 1455.21 1509.29 1454.77 Q1507.51 1454.33 1505.75 1454.33 Q1501.12 1454.33 1498.67 1457.45 Q1496.23 1460.58 1495.89 1466.9 Q1497.25 1464.89 1499.31 1463.82 Q1501.37 1462.73 1503.85 1462.73 Q1509.06 1462.73 1512.07 1465.9 Q1515.1 1469.05 1515.1 1474.49 Q1515.1 1479.82 1511.95 1483.03 Q1508.8 1486.25 1503.57 1486.25 Q1497.58 1486.25 1494.41 1481.67 Q1491.23 1477.06 1491.23 1468.33 Q1491.23 1460.14 1495.12 1455.28 Q1499.01 1450.39 1505.56 1450.39 Q1507.32 1450.39 1509.11 1450.74 Q1510.91 1451.09 1512.86 1451.78 Z" fill="#000000" fill-rule="evenodd" fill-opacity="1" /><path clip-path="url(#clip060)" d="M1894.04 1454.1 Q1890.43 1454.1 1888.6 1457.66 Q1886.79 1461.2 1886.79 1468.33 Q1886.79 1475.44 1888.6 1479.01 Q1890.43 1482.55 1894.04 1482.55 Q1897.67 1482.55 1899.48 1479.01 Q1901.31 1475.44 1901.31 1468.33 Q1901.31 1461.2 1899.48 1457.66 Q1897.67 1454.1 1894.04 1454.1 M1894.04 1450.39 Q1899.85 1450.39 1902.9 1455 Q1905.98 1459.58 1905.98 1468.33 Q1905.98 1477.06 1902.9 1481.67 Q1899.85 1486.25 1894.04 1486.25 Q1888.23 1486.25 1885.15 1481.67 Q1882.09 1477.06 1882.09 1468.33 Q1882.09 1459.58 1885.15 1455 Q1888.23 1450.39 1894.04 1450.39 Z" fill="#000000" fill-rule="evenodd" fill-opacity="1" /><path clip-path="url(#clip060)" d="M1914.2 1479.7 L1919.08 1479.7 L1919.08 1485.58 L1914.2 1485.58 L1914.2 1479.7 Z" fill="#000000" fill-rule="evenodd" fill-opacity="1" /><path clip-path="url(#clip060)" d="M1939.27 1469.17 Q1935.94 1469.17 1934.02 1470.95 Q1932.12 1472.73 1932.12 1475.86 Q1932.12 1478.98 1934.02 1480.77 Q1935.94 1482.55 1939.27 1482.55 Q1942.6 1482.55 1944.52 1480.77 Q1946.45 1478.96 1946.45 1475.86 Q1946.45 1472.73 1944.52 1470.95 Q1942.63 1469.17 1939.27 1469.17 M1934.59 1467.18 Q1931.58 1466.44 1929.89 1464.38 Q1928.23 1462.32 1928.23 1459.35 Q1928.23 1455.21 1931.17 1452.8 Q1934.13 1450.39 1939.27 1450.39 Q1944.43 1450.39 1947.37 1452.8 Q1950.31 1455.21 1950.31 1459.35 Q1950.31 1462.32 1948.62 1464.38 Q1946.95 1466.44 1943.97 1467.18 Q1947.35 1467.96 1949.22 1470.26 Q1951.12 1472.55 1951.12 1475.86 Q1951.12 1480.88 1948.04 1483.57 Q1944.99 1486.25 1939.27 1486.25 Q1933.55 1486.25 1930.47 1483.57 Q1927.42 1480.88 1927.42 1475.86 Q1927.42 1472.55 1929.32 1470.26 Q1931.21 1467.96 1934.59 1467.18 M1932.88 1459.79 Q1932.88 1462.48 1934.55 1463.98 Q1936.24 1465.49 1939.27 1465.49 Q1942.28 1465.49 1943.97 1463.98 Q1945.68 1462.48 1945.68 1459.79 Q1945.68 1457.11 1943.97 1455.6 Q1942.28 1454.1 1939.27 1454.1 Q1936.24 1454.1 1934.55 1455.6 Q1932.88 1457.11 1932.88 1459.79 Z" fill="#000000" fill-rule="evenodd" fill-opacity="1" /><path clip-path="url(#clip060)" d="M2319.91 1481.64 L2327.55 1481.64 L2327.55 1455.28 L2319.24 1456.95 L2319.24 1452.69 L2327.5 1451.02 L2332.18 1451.02 L2332.18 1481.64 L2339.82 1481.64 L2339.82 1485.58 L2319.91 1485.58 L2319.91 1481.64 Z" fill="#000000" fill-rule="evenodd" fill-opacity="1" /><path clip-path="url(#clip060)" d="M2349.26 1479.7 L2354.14 1479.7 L2354.14 1485.58 L2349.26 1485.58 L2349.26 1479.7 Z" fill="#000000" fill-rule="evenodd" fill-opacity="1" /><path clip-path="url(#clip060)" d="M2374.33 1454.1 Q2370.72 1454.1 2368.89 1457.66 Q2367.08 1461.2 2367.08 1468.33 Q2367.08 1475.44 2368.89 1479.01 Q2370.72 1482.55 2374.33 1482.55 Q2377.96 1482.55 2379.77 1479.01 Q2381.6 1475.44 2381.6 1468.33 Q2381.6 1461.2 2379.77 1457.66 Q2377.96 1454.1 2374.33 1454.1 M2374.33 1450.39 Q2380.14 1450.39 2383.2 1455 Q2386.27 1459.58 2386.27 1468.33 Q2386.27 1477.06 2383.2 1481.67 Q2380.14 1486.25 2374.33 1486.25 Q2368.52 1486.25 2365.44 1481.67 Q2362.39 1477.06 2362.39 1468.33 Q2362.39 1459.58 2365.44 1455 Q2368.52 1450.39 2374.33 1450.39 Z" fill="#000000" fill-rule="evenodd" fill-opacity="1" /><path clip-path="url(#clip060)" d="M960.476 1520.52 L966.905 1520.52 L966.905 1540 L990.267 1540 L990.267 1520.52 L996.697 1520.52 L996.697 1568.04 L990.267 1568.04 L990.267 1545.41 L966.905 1545.41 L966.905 1568.04 L960.476 1568.04 L960.476 1520.52 Z" fill="#000000" fill-rule="evenodd" fill-opacity="1" /><path clip-path="url(#clip060)" d="M1025.44 1550.12 Q1018.34 1550.12 1015.6 1551.75 Q1012.87 1553.37 1012.87 1557.29 Q1012.87 1560.4 1014.9 1562.25 Q1016.97 1564.07 1020.5 1564.07 Q1025.37 1564.07 1028.3 1560.63 Q1031.26 1557.16 1031.26 1551.43 L1031.26 1550.12 L1025.44 1550.12 M1037.12 1547.71 L1037.12 1568.04 L1031.26 1568.04 L1031.26 1562.63 Q1029.26 1565.88 1026.27 1567.44 Q1023.27 1568.97 1018.94 1568.97 Q1013.47 1568.97 1010.22 1565.91 Q1007.01 1562.82 1007.01 1557.67 Q1007.01 1551.65 1011.02 1548.6 Q1015.06 1545.54 1023.05 1545.54 L1031.26 1545.54 L1031.26 1544.97 Q1031.26 1540.93 1028.59 1538.73 Q1025.95 1536.5 1021.14 1536.5 Q1018.09 1536.5 1015.19 1537.23 Q1012.29 1537.97 1009.62 1539.43 L1009.62 1534.02 Q1012.83 1532.78 1015.86 1532.17 Q1018.88 1531.54 1021.75 1531.54 Q1029.48 1531.54 1033.3 1535.55 Q1037.12 1539.56 1037.12 1547.71 Z" fill="#000000" fill-rule="evenodd" fill-opacity="1" /><path clip-path="url(#clip060)" d="M1076.94 1539.24 Q1079.13 1535.29 1082.19 1533.41 Q1085.24 1531.54 1089.38 1531.54 Q1094.95 1531.54 1097.98 1535.45 Q1101 1539.33 1101 1546.53 L1101 1568.04 L1095.11 1568.04 L1095.11 1546.72 Q1095.11 1541.59 1093.3 1539.11 Q1091.48 1536.63 1087.76 1536.63 Q1083.21 1536.63 1080.56 1539.65 Q1077.92 1542.68 1077.92 1547.9 L1077.92 1568.04 L1072.03 1568.04 L1072.03 1546.72 Q1072.03 1541.56 1070.22 1539.11 Q1068.41 1536.63 1064.62 1536.63 Q1060.13 1536.63 1057.49 1539.68 Q1054.85 1542.71 1054.85 1547.9 L1054.85 1568.04 L1048.96 1568.04 L1048.96 1532.4 L1054.85 1532.4 L1054.85 1537.93 Q1056.85 1534.66 1059.65 1533.1 Q1062.45 1531.54 1066.31 1531.54 Q1070.19 1531.54 1072.89 1533.51 Q1075.63 1535.48 1076.94 1539.24 Z" fill="#000000" fill-rule="evenodd" fill-opacity="1" /><path clip-path="url(#clip060)" d="M1140.43 1539.24 Q1142.63 1535.29 1145.69 1533.41 Q1148.74 1531.54 1152.88 1531.54 Q1158.45 1531.54 1161.47 1535.45 Q1164.5 1539.33 1164.5 1546.53 L1164.5 1568.04 L1158.61 1568.04 L1158.61 1546.72 Q1158.61 1541.59 1156.79 1539.11 Q1154.98 1536.63 1151.26 1536.63 Q1146.7 1536.63 1144.06 1539.65 Q1141.42 1542.68 1141.42 1547.9 L1141.42 1568.04 L1135.53 1568.04 L1135.53 1546.72 Q1135.53 1541.56 1133.72 1539.11 Q1131.9 1536.63 1128.12 1536.63 Q1123.63 1536.63 1120.99 1539.68 Q1118.35 1542.71 1118.35 1547.9 L1118.35 1568.04 L1112.46 1568.04 L1112.46 1532.4 L1118.35 1532.4 L1118.35 1537.93 Q1120.35 1534.66 1123.15 1533.1 Q1125.95 1531.54 1129.8 1531.54 Q1133.69 1531.54 1136.39 1533.51 Q1139.13 1535.48 1140.43 1539.24 Z" fill="#000000" fill-rule="evenodd" fill-opacity="1" /><path clip-path="url(#clip060)" d="M1176.18 1532.4 L1182.03 1532.4 L1182.03 1568.04 L1176.18 1568.04 L1176.18 1532.4 M1176.18 1518.52 L1182.03 1518.52 L1182.03 1525.93 L1176.18 1525.93 L1176.18 1518.52 Z" fill="#000000" fill-rule="evenodd" fill-opacity="1" /><path clip-path="url(#clip060)" d="M1223.92 1546.53 L1223.92 1568.04 L1218.06 1568.04 L1218.06 1546.72 Q1218.06 1541.66 1216.09 1539.14 Q1214.12 1536.63 1210.17 1536.63 Q1205.43 1536.63 1202.69 1539.65 Q1199.95 1542.68 1199.95 1547.9 L1199.95 1568.04 L1194.07 1568.04 L1194.07 1532.4 L1199.95 1532.4 L1199.95 1537.93 Q1202.05 1534.72 1204.89 1533.13 Q1207.75 1531.54 1211.48 1531.54 Q1217.62 1531.54 1220.77 1535.36 Q1223.92 1539.14 1223.92 1546.53 Z" fill="#000000" fill-rule="evenodd" fill-opacity="1" /><path clip-path="url(#clip060)" d="M1259.06 1549.81 Q1259.06 1543.44 1256.42 1539.94 Q1253.81 1536.44 1249.07 1536.44 Q1244.35 1536.44 1241.71 1539.94 Q1239.1 1543.44 1239.1 1549.81 Q1239.1 1556.14 1241.71 1559.64 Q1244.35 1563.14 1249.07 1563.14 Q1253.81 1563.14 1256.42 1559.64 Q1259.06 1556.14 1259.06 1549.81 M1264.92 1563.62 Q1264.92 1572.72 1260.87 1577.15 Q1256.83 1581.6 1248.49 1581.6 Q1245.4 1581.6 1242.67 1581.13 Q1239.93 1580.68 1237.35 1579.72 L1237.35 1574.03 Q1239.93 1575.43 1242.44 1576.1 Q1244.96 1576.76 1247.57 1576.76 Q1253.33 1576.76 1256.19 1573.74 Q1259.06 1570.75 1259.06 1564.67 L1259.06 1561.77 Q1257.25 1564.92 1254.41 1566.48 Q1251.58 1568.04 1247.63 1568.04 Q1241.08 1568.04 1237.07 1563.05 Q1233.06 1558.05 1233.06 1549.81 Q1233.06 1541.53 1237.07 1536.53 Q1241.08 1531.54 1247.63 1531.54 Q1251.58 1531.54 1254.41 1533.1 Q1257.25 1534.66 1259.06 1537.81 L1259.06 1532.4 L1264.92 1532.4 L1264.92 1563.62 Z" fill="#000000" fill-rule="evenodd" fill-opacity="1" /><path clip-path="url(#clip060)" d="M1321.16 1537.81 L1321.16 1518.52 L1327.01 1518.52 L1327.01 1568.04 L1321.16 1568.04 L1321.16 1562.7 Q1319.31 1565.88 1316.48 1567.44 Q1313.68 1568.97 1309.73 1568.97 Q1303.27 1568.97 1299.2 1563.81 Q1295.15 1558.65 1295.15 1550.25 Q1295.15 1541.85 1299.2 1536.69 Q1303.27 1531.54 1309.73 1531.54 Q1313.68 1531.54 1316.48 1533.1 Q1319.31 1534.62 1321.16 1537.81 M1301.2 1550.25 Q1301.2 1556.71 1303.84 1560.4 Q1306.52 1564.07 1311.16 1564.07 Q1315.81 1564.07 1318.48 1560.4 Q1321.16 1556.71 1321.16 1550.25 Q1321.16 1543.79 1318.48 1540.13 Q1315.81 1536.44 1311.16 1536.44 Q1306.52 1536.44 1303.84 1540.13 Q1301.2 1543.79 1301.2 1550.25 Z" fill="#000000" fill-rule="evenodd" fill-opacity="1" /><path clip-path="url(#clip060)" d="M1339.08 1532.4 L1344.93 1532.4 L1344.93 1568.04 L1339.08 1568.04 L1339.08 1532.4 M1339.08 1518.52 L1344.93 1518.52 L1344.93 1525.93 L1339.08 1525.93 L1339.08 1518.52 Z" fill="#000000" fill-rule="evenodd" fill-opacity="1" /><path clip-path="url(#clip060)" d="M1379.91 1533.45 L1379.91 1538.98 Q1377.43 1537.71 1374.76 1537.07 Q1372.08 1536.44 1369.22 1536.44 Q1364.86 1536.44 1362.66 1537.77 Q1360.5 1539.11 1360.5 1541.79 Q1360.5 1543.82 1362.06 1545 Q1363.62 1546.15 1368.33 1547.2 L1370.33 1547.64 Q1376.57 1548.98 1379.18 1551.43 Q1381.82 1553.85 1381.82 1558.21 Q1381.82 1563.17 1377.88 1566.07 Q1373.96 1568.97 1367.09 1568.97 Q1364.22 1568.97 1361.1 1568.39 Q1358.01 1567.85 1354.58 1566.74 L1354.58 1560.69 Q1357.82 1562.38 1360.97 1563.24 Q1364.13 1564.07 1367.21 1564.07 Q1371.35 1564.07 1373.58 1562.66 Q1375.81 1561.23 1375.81 1558.65 Q1375.81 1556.27 1374.18 1554.99 Q1372.59 1553.72 1367.15 1552.54 L1365.11 1552.07 Q1359.67 1550.92 1357.25 1548.56 Q1354.83 1546.18 1354.83 1542.04 Q1354.83 1537.01 1358.4 1534.27 Q1361.96 1531.54 1368.52 1531.54 Q1371.76 1531.54 1374.63 1532.01 Q1377.49 1532.49 1379.91 1533.45 Z" fill="#000000" fill-rule="evenodd" fill-opacity="1" /><path clip-path="url(#clip060)" d="M1396.94 1522.27 L1396.94 1532.4 L1409 1532.4 L1409 1536.95 L1396.94 1536.95 L1396.94 1556.3 Q1396.94 1560.66 1398.12 1561.9 Q1399.33 1563.14 1402.99 1563.14 L1409 1563.14 L1409 1568.04 L1402.99 1568.04 Q1396.21 1568.04 1393.63 1565.53 Q1391.05 1562.98 1391.05 1556.3 L1391.05 1536.95 L1386.76 1536.95 L1386.76 1532.4 L1391.05 1532.4 L1391.05 1522.27 L1396.94 1522.27 Z" fill="#000000" fill-rule="evenodd" fill-opacity="1" /><path clip-path="url(#clip060)" d="M1432.91 1550.12 Q1425.81 1550.12 1423.07 1551.75 Q1420.33 1553.37 1420.33 1557.29 Q1420.33 1560.4 1422.37 1562.25 Q1424.44 1564.07 1427.97 1564.07 Q1432.84 1564.07 1435.77 1560.63 Q1438.73 1557.16 1438.73 1551.43 L1438.73 1550.12 L1432.91 1550.12 M1444.59 1547.71 L1444.59 1568.04 L1438.73 1568.04 L1438.73 1562.63 Q1436.73 1565.88 1433.73 1567.44 Q1430.74 1568.97 1426.41 1568.97 Q1420.94 1568.97 1417.69 1565.91 Q1414.48 1562.82 1414.48 1557.67 Q1414.48 1551.65 1418.49 1548.6 Q1422.53 1545.54 1430.52 1545.54 L1438.73 1545.54 L1438.73 1544.97 Q1438.73 1540.93 1436.06 1538.73 Q1433.42 1536.5 1428.61 1536.5 Q1425.55 1536.5 1422.66 1537.23 Q1419.76 1537.97 1417.09 1539.43 L1417.09 1534.02 Q1420.3 1532.78 1423.33 1532.17 Q1426.35 1531.54 1429.21 1531.54 Q1436.95 1531.54 1440.77 1535.55 Q1444.59 1539.56 1444.59 1547.71 Z" fill="#000000" fill-rule="evenodd" fill-opacity="1" /><path clip-path="url(#clip060)" d="M1486.28 1546.53 L1486.28 1568.04 L1480.43 1568.04 L1480.43 1546.72 Q1480.43 1541.66 1478.45 1539.14 Q1476.48 1536.63 1472.53 1536.63 Q1467.79 1536.63 1465.05 1539.65 Q1462.32 1542.68 1462.32 1547.9 L1462.32 1568.04 L1456.43 1568.04 L1456.43 1532.4 L1462.32 1532.4 L1462.32 1537.93 Q1464.42 1534.72 1467.25 1533.13 Q1470.11 1531.54 1473.84 1531.54 Q1479.98 1531.54 1483.13 1535.36 Q1486.28 1539.14 1486.28 1546.53 Z" fill="#000000" fill-rule="evenodd" fill-opacity="1" /><path clip-path="url(#clip060)" d="M1523.62 1533.76 L1523.62 1539.24 Q1521.14 1537.87 1518.62 1537.2 Q1516.14 1536.5 1513.59 1536.5 Q1507.89 1536.5 1504.74 1540.13 Q1501.59 1543.73 1501.59 1550.25 Q1501.59 1556.78 1504.74 1560.4 Q1507.89 1564 1513.59 1564 Q1516.14 1564 1518.62 1563.33 Q1521.14 1562.63 1523.62 1561.26 L1523.62 1566.68 Q1521.17 1567.82 1518.53 1568.39 Q1515.92 1568.97 1512.96 1568.97 Q1504.9 1568.97 1500.16 1563.91 Q1495.42 1558.85 1495.42 1550.25 Q1495.42 1541.53 1500.19 1536.53 Q1505 1531.54 1513.34 1531.54 Q1516.04 1531.54 1518.62 1532.11 Q1521.2 1532.65 1523.62 1533.76 Z" fill="#000000" fill-rule="evenodd" fill-opacity="1" /><path clip-path="url(#clip060)" d="M1564.29 1548.76 L1564.29 1551.62 L1537.37 1551.62 Q1537.75 1557.67 1541 1560.85 Q1544.27 1564 1550.1 1564 Q1553.47 1564 1556.62 1563.17 Q1559.81 1562.35 1562.93 1560.69 L1562.93 1566.23 Q1559.78 1567.57 1556.47 1568.27 Q1553.15 1568.97 1549.75 1568.97 Q1541.22 1568.97 1536.22 1564 Q1531.26 1559.04 1531.26 1550.57 Q1531.26 1541.82 1535.97 1536.69 Q1540.71 1531.54 1548.73 1531.54 Q1555.92 1531.54 1560.09 1536.18 Q1564.29 1540.8 1564.29 1548.76 M1558.44 1547.04 Q1558.37 1542.23 1555.73 1539.37 Q1553.12 1536.5 1548.79 1536.5 Q1543.89 1536.5 1540.93 1539.27 Q1538 1542.04 1537.56 1547.07 L1558.44 1547.04 Z" fill="#000000" fill-rule="evenodd" fill-opacity="1" /><polyline clip-path="url(#clip062)" style="stroke:#000000; stroke-linecap:butt; stroke-linejoin:round; stroke-width:2; stroke-opacity:0.1; fill:none" points="
  172.015,1384.24 2352.76,1384.24 
  "/>
<polyline clip-path="url(#clip062)" style="stroke:#000000; stroke-linecap:butt; stroke-linejoin:round; stroke-width:2; stroke-opacity:0.1; fill:none" points="
  172.015,1119.87 2352.76,1119.87 
  "/>
<polyline clip-path="url(#clip062)" style="stroke:#000000; stroke-linecap:butt; stroke-linejoin:round; stroke-width:2; stroke-opacity:0.1; fill:none" points="
  172.015,855.5 2352.76,855.5 
  "/>
<polyline clip-path="url(#clip062)" style="stroke:#000000; stroke-linecap:butt; stroke-linejoin:round; stroke-width:2; stroke-opacity:0.1; fill:none" points="
  172.015,591.131 2352.76,591.131 
  "/>
<polyline clip-path="url(#clip062)" style="stroke:#000000; stroke-linecap:butt; stroke-linejoin:round; stroke-width:2; stroke-opacity:0.1; fill:none" points="
  172.015,326.762 2352.76,326.762 
  "/>
<polyline clip-path="url(#clip062)" style="stroke:#000000; stroke-linecap:butt; stroke-linejoin:round; stroke-width:2; stroke-opacity:0.1; fill:none" points="
  172.015,62.3924 2352.76,62.3924 
  "/>
<polyline clip-path="url(#clip060)" style="stroke:#000000; stroke-linecap:butt; stroke-linejoin:round; stroke-width:4; stroke-opacity:1; fill:none" points="
  172.015,1423.18 172.015,47.2441 
  "/>
<polyline clip-path="url(#clip060)" style="stroke:#000000; stroke-linecap:butt; stroke-linejoin:round; stroke-width:4; stroke-opacity:1; fill:none" points="
  172.015,1384.24 190.912,1384.24 
  "/>
<polyline clip-path="url(#clip060)" style="stroke:#000000; stroke-linecap:butt; stroke-linejoin:round; stroke-width:4; stroke-opacity:1; fill:none" points="
  172.015,1119.87 190.912,1119.87 
  "/>
<polyline clip-path="url(#clip060)" style="stroke:#000000; stroke-linecap:butt; stroke-linejoin:round; stroke-width:4; stroke-opacity:1; fill:none" points="
  172.015,855.5 190.912,855.5 
  "/>
<polyline clip-path="url(#clip060)" style="stroke:#000000; stroke-linecap:butt; stroke-linejoin:round; stroke-width:4; stroke-opacity:1; fill:none" points="
  172.015,591.131 190.912,591.131 
  "/>
<polyline clip-path="url(#clip060)" style="stroke:#000000; stroke-linecap:butt; stroke-linejoin:round; stroke-width:4; stroke-opacity:1; fill:none" points="
  172.015,326.762 190.912,326.762 
  "/>
<polyline clip-path="url(#clip060)" style="stroke:#000000; stroke-linecap:butt; stroke-linejoin:round; stroke-width:4; stroke-opacity:1; fill:none" points="
  172.015,62.3924 190.912,62.3924 
  "/>
<path clip-path="url(#clip060)" d="M124.07 1370.04 Q120.459 1370.04 118.631 1373.6 Q116.825 1377.14 116.825 1384.27 Q116.825 1391.38 118.631 1394.94 Q120.459 1398.49 124.07 1398.49 Q127.705 1398.49 129.51 1394.94 Q131.339 1391.38 131.339 1384.27 Q131.339 1377.14 129.51 1373.6 Q127.705 1370.04 124.07 1370.04 M124.07 1366.33 Q129.881 1366.33 132.936 1370.94 Q136.015 1375.52 136.015 1384.27 Q136.015 1393 132.936 1397.61 Q129.881 1402.19 124.07 1402.19 Q118.26 1402.19 115.182 1397.61 Q112.126 1393 112.126 1384.27 Q112.126 1375.52 115.182 1370.94 Q118.26 1366.33 124.07 1366.33 Z" fill="#000000" fill-rule="evenodd" fill-opacity="1" /><path clip-path="url(#clip060)" d="M54.5569 1133.21 L62.1958 1133.21 L62.1958 1106.85 L53.8856 1108.51 L53.8856 1104.26 L62.1495 1102.59 L66.8254 1102.59 L66.8254 1133.21 L74.4642 1133.21 L74.4642 1137.15 L54.5569 1137.15 L54.5569 1133.21 Z" fill="#000000" fill-rule="evenodd" fill-opacity="1" /><path clip-path="url(#clip060)" d="M93.9086 1105.67 Q90.2975 1105.67 88.4688 1109.23 Q86.6632 1112.77 86.6632 1119.9 Q86.6632 1127.01 88.4688 1130.58 Q90.2975 1134.12 93.9086 1134.12 Q97.5428 1134.12 99.3483 1130.58 Q101.177 1127.01 101.177 1119.9 Q101.177 1112.77 99.3483 1109.23 Q97.5428 1105.67 93.9086 1105.67 M93.9086 1101.96 Q99.7187 1101.96 102.774 1106.57 Q105.853 1111.15 105.853 1119.9 Q105.853 1128.63 102.774 1133.24 Q99.7187 1137.82 93.9086 1137.82 Q88.0984 1137.82 85.0197 1133.24 Q81.9642 1128.63 81.9642 1119.9 Q81.9642 1111.15 85.0197 1106.57 Q88.0984 1101.96 93.9086 1101.96 Z" fill="#000000" fill-rule="evenodd" fill-opacity="1" /><path clip-path="url(#clip060)" d="M124.07 1105.67 Q120.459 1105.67 118.631 1109.23 Q116.825 1112.77 116.825 1119.9 Q116.825 1127.01 118.631 1130.58 Q120.459 1134.12 124.07 1134.12 Q127.705 1134.12 129.51 1130.58 Q131.339 1127.01 131.339 1119.9 Q131.339 1112.77 129.51 1109.23 Q127.705 1105.67 124.07 1105.67 M124.07 1101.96 Q129.881 1101.96 132.936 1106.57 Q136.015 1111.15 136.015 1119.9 Q136.015 1128.63 132.936 1133.24 Q129.881 1137.82 124.07 1137.82 Q118.26 1137.82 115.182 1133.24 Q112.126 1128.63 112.126 1119.9 Q112.126 1111.15 115.182 1106.57 Q118.26 1101.96 124.07 1101.96 Z" fill="#000000" fill-rule="evenodd" fill-opacity="1" /><path clip-path="url(#clip060)" d="M57.7745 868.845 L74.0939 868.845 L74.0939 872.78 L52.1495 872.78 L52.1495 868.845 Q54.8115 866.09 59.3949 861.461 Q64.0013 856.808 65.1819 855.465 Q67.4272 852.942 68.3068 851.206 Q69.2096 849.447 69.2096 847.757 Q69.2096 845.002 67.2652 843.266 Q65.3439 841.53 62.2421 841.53 Q60.043 841.53 57.5893 842.294 Q55.1588 843.058 52.381 844.609 L52.381 839.887 Q55.2051 838.752 57.6588 838.174 Q60.1124 837.595 62.1495 837.595 Q67.5198 837.595 70.7142 840.28 Q73.9087 842.965 73.9087 847.456 Q73.9087 849.586 73.0985 851.507 Q72.3115 853.405 70.205 855.998 Q69.6263 856.669 66.5245 859.886 Q63.4226 863.081 57.7745 868.845 Z" fill="#000000" fill-rule="evenodd" fill-opacity="1" /><path clip-path="url(#clip060)" d="M93.9086 841.299 Q90.2975 841.299 88.4688 844.863 Q86.6632 848.405 86.6632 855.535 Q86.6632 862.641 88.4688 866.206 Q90.2975 869.748 93.9086 869.748 Q97.5428 869.748 99.3483 866.206 Q101.177 862.641 101.177 855.535 Q101.177 848.405 99.3483 844.863 Q97.5428 841.299 93.9086 841.299 M93.9086 837.595 Q99.7187 837.595 102.774 842.201 Q105.853 846.785 105.853 855.535 Q105.853 864.261 102.774 868.868 Q99.7187 873.451 93.9086 873.451 Q88.0984 873.451 85.0197 868.868 Q81.9642 864.261 81.9642 855.535 Q81.9642 846.785 85.0197 842.201 Q88.0984 837.595 93.9086 837.595 Z" fill="#000000" fill-rule="evenodd" fill-opacity="1" /><path clip-path="url(#clip060)" d="M124.07 841.299 Q120.459 841.299 118.631 844.863 Q116.825 848.405 116.825 855.535 Q116.825 862.641 118.631 866.206 Q120.459 869.748 124.07 869.748 Q127.705 869.748 129.51 866.206 Q131.339 862.641 131.339 855.535 Q131.339 848.405 129.51 844.863 Q127.705 841.299 124.07 841.299 M124.07 837.595 Q129.881 837.595 132.936 842.201 Q136.015 846.785 136.015 855.535 Q136.015 864.261 132.936 868.868 Q129.881 873.451 124.07 873.451 Q118.26 873.451 115.182 868.868 Q112.126 864.261 112.126 855.535 Q112.126 846.785 115.182 842.201 Q118.26 837.595 124.07 837.595 Z" fill="#000000" fill-rule="evenodd" fill-opacity="1" /><path clip-path="url(#clip060)" d="M67.9133 589.777 Q71.2698 590.494 73.1448 592.763 Q75.0429 595.031 75.0429 598.365 Q75.0429 603.48 71.5244 606.281 Q68.0059 609.082 61.5245 609.082 Q59.3486 609.082 57.0338 608.642 Q54.7421 608.226 52.2884 607.369 L52.2884 602.855 Q54.2328 603.99 56.5477 604.568 Q58.8625 605.147 61.3856 605.147 Q65.7837 605.147 68.0754 603.411 Q70.3902 601.675 70.3902 598.365 Q70.3902 595.309 68.2374 593.596 Q66.1078 591.86 62.2884 591.86 L58.2606 591.86 L58.2606 588.017 L62.4735 588.017 Q65.9226 588.017 67.7513 586.652 Q69.58 585.263 69.58 582.67 Q69.58 580.008 67.6819 578.596 Q65.8069 577.161 62.2884 577.161 Q60.3671 577.161 58.168 577.578 Q55.969 577.994 53.3301 578.874 L53.3301 574.707 Q55.9921 573.967 58.3069 573.596 Q60.6449 573.226 62.705 573.226 Q68.0291 573.226 71.1309 575.656 Q74.2327 578.064 74.2327 582.184 Q74.2327 585.054 72.5892 587.045 Q70.9457 589.013 67.9133 589.777 Z" fill="#000000" fill-rule="evenodd" fill-opacity="1" /><path clip-path="url(#clip060)" d="M93.9086 576.929 Q90.2975 576.929 88.4688 580.494 Q86.6632 584.036 86.6632 591.165 Q86.6632 598.272 88.4688 601.837 Q90.2975 605.378 93.9086 605.378 Q97.5428 605.378 99.3483 601.837 Q101.177 598.272 101.177 591.165 Q101.177 584.036 99.3483 580.494 Q97.5428 576.929 93.9086 576.929 M93.9086 573.226 Q99.7187 573.226 102.774 577.832 Q105.853 582.416 105.853 591.165 Q105.853 599.892 102.774 604.499 Q99.7187 609.082 93.9086 609.082 Q88.0984 609.082 85.0197 604.499 Q81.9642 599.892 81.9642 591.165 Q81.9642 582.416 85.0197 577.832 Q88.0984 573.226 93.9086 573.226 Z" fill="#000000" fill-rule="evenodd" fill-opacity="1" /><path clip-path="url(#clip060)" d="M124.07 576.929 Q120.459 576.929 118.631 580.494 Q116.825 584.036 116.825 591.165 Q116.825 598.272 118.631 601.837 Q120.459 605.378 124.07 605.378 Q127.705 605.378 129.51 601.837 Q131.339 598.272 131.339 591.165 Q131.339 584.036 129.51 580.494 Q127.705 576.929 124.07 576.929 M124.07 573.226 Q129.881 573.226 132.936 577.832 Q136.015 582.416 136.015 591.165 Q136.015 599.892 132.936 604.499 Q129.881 609.082 124.07 609.082 Q118.26 609.082 115.182 604.499 Q112.126 599.892 112.126 591.165 Q112.126 582.416 115.182 577.832 Q118.26 573.226 124.07 573.226 Z" fill="#000000" fill-rule="evenodd" fill-opacity="1" /><path clip-path="url(#clip060)" d="M66.5939 313.556 L54.7884 332.005 L66.5939 332.005 L66.5939 313.556 M65.367 309.482 L71.2466 309.482 L71.2466 332.005 L76.1772 332.005 L76.1772 335.894 L71.2466 335.894 L71.2466 344.042 L66.5939 344.042 L66.5939 335.894 L50.9921 335.894 L50.9921 331.38 L65.367 309.482 Z" fill="#000000" fill-rule="evenodd" fill-opacity="1" /><path clip-path="url(#clip060)" d="M93.9086 312.56 Q90.2975 312.56 88.4688 316.125 Q86.6632 319.667 86.6632 326.796 Q86.6632 333.903 88.4688 337.468 Q90.2975 341.009 93.9086 341.009 Q97.5428 341.009 99.3483 337.468 Q101.177 333.903 101.177 326.796 Q101.177 319.667 99.3483 316.125 Q97.5428 312.56 93.9086 312.56 M93.9086 308.857 Q99.7187 308.857 102.774 313.463 Q105.853 318.046 105.853 326.796 Q105.853 335.523 102.774 340.13 Q99.7187 344.713 93.9086 344.713 Q88.0984 344.713 85.0197 340.13 Q81.9642 335.523 81.9642 326.796 Q81.9642 318.046 85.0197 313.463 Q88.0984 308.857 93.9086 308.857 Z" fill="#000000" fill-rule="evenodd" fill-opacity="1" /><path clip-path="url(#clip060)" d="M124.07 312.56 Q120.459 312.56 118.631 316.125 Q116.825 319.667 116.825 326.796 Q116.825 333.903 118.631 337.468 Q120.459 341.009 124.07 341.009 Q127.705 341.009 129.51 337.468 Q131.339 333.903 131.339 326.796 Q131.339 319.667 129.51 316.125 Q127.705 312.56 124.07 312.56 M124.07 308.857 Q129.881 308.857 132.936 313.463 Q136.015 318.046 136.015 326.796 Q136.015 335.523 132.936 340.13 Q129.881 344.713 124.07 344.713 Q118.26 344.713 115.182 340.13 Q112.126 335.523 112.126 326.796 Q112.126 318.046 115.182 313.463 Q118.26 308.857 124.07 308.857 Z" fill="#000000" fill-rule="evenodd" fill-opacity="1" /><path clip-path="url(#clip060)" d="M53.793 45.1124 L72.1494 45.1124 L72.1494 49.0476 L58.0754 49.0476 L58.0754 57.5198 Q59.0939 57.1726 60.1124 57.0105 Q61.131 56.8253 62.1495 56.8253 Q67.9365 56.8253 71.3161 59.9966 Q74.6957 63.1679 74.6957 68.5845 Q74.6957 74.1632 71.2235 77.2651 Q67.7513 80.3437 61.4319 80.3437 Q59.256 80.3437 56.9875 79.9734 Q54.7421 79.603 52.3347 78.8623 L52.3347 74.1632 Q54.418 75.2975 56.6402 75.853 Q58.8625 76.4086 61.3393 76.4086 Q65.3439 76.4086 67.6819 74.3021 Q70.0198 72.1956 70.0198 68.5845 Q70.0198 64.9735 67.6819 62.867 Q65.3439 60.7605 61.3393 60.7605 Q59.4643 60.7605 57.5893 61.1772 Q55.7375 61.5938 53.793 62.4735 L53.793 45.1124 Z" fill="#000000" fill-rule="evenodd" fill-opacity="1" /><path clip-path="url(#clip060)" d="M93.9086 48.1911 Q90.2975 48.1911 88.4688 51.7559 Q86.6632 55.2976 86.6632 62.4272 Q86.6632 69.5336 88.4688 73.0984 Q90.2975 76.6401 93.9086 76.6401 Q97.5428 76.6401 99.3483 73.0984 Q101.177 69.5336 101.177 62.4272 Q101.177 55.2976 99.3483 51.7559 Q97.5428 48.1911 93.9086 48.1911 M93.9086 44.4875 Q99.7187 44.4875 102.774 49.0939 Q105.853 53.6772 105.853 62.4272 Q105.853 71.154 102.774 75.7604 Q99.7187 80.3437 93.9086 80.3437 Q88.0984 80.3437 85.0197 75.7604 Q81.9642 71.154 81.9642 62.4272 Q81.9642 53.6772 85.0197 49.0939 Q88.0984 44.4875 93.9086 44.4875 Z" fill="#000000" fill-rule="evenodd" fill-opacity="1" /><path clip-path="url(#clip060)" d="M124.07 48.1911 Q120.459 48.1911 118.631 51.7559 Q116.825 55.2976 116.825 62.4272 Q116.825 69.5336 118.631 73.0984 Q120.459 76.6401 124.07 76.6401 Q127.705 76.6401 129.51 73.0984 Q131.339 69.5336 131.339 62.4272 Q131.339 55.2976 129.51 51.7559 Q127.705 48.1911 124.07 48.1911 M124.07 44.4875 Q129.881 44.4875 132.936 49.0939 Q136.015 53.6772 136.015 62.4272 Q136.015 71.154 132.936 75.7604 Q129.881 80.3437 124.07 80.3437 Q118.26 80.3437 115.182 75.7604 Q112.126 71.154 112.126 62.4272 Q112.126 53.6772 115.182 49.0939 Q118.26 44.4875 124.07 44.4875 Z" fill="#000000" fill-rule="evenodd" fill-opacity="1" /><path clip-path="url(#clip062)" d="
M682.308 1381.59 L682.308 1384.24 L683.399 1384.24 L683.399 1381.59 L682.308 1381.59 L682.308 1381.59  Z
  " fill="#009af9" fill-rule="evenodd" fill-opacity="1"/>
<polyline clip-path="url(#clip062)" style="stroke:#000000; stroke-linecap:butt; stroke-linejoin:round; stroke-width:4; stroke-opacity:1; fill:none" points="
  682.308,1381.59 682.308,1384.24 683.399,1384.24 683.399,1381.59 682.308,1381.59 
  "/>
<path clip-path="url(#clip062)" d="
M683.399 1384.24 L683.399 1384.24 L684.489 1384.24 L684.489 1384.24 L683.399 1384.24 L683.399 1384.24  Z
  " fill="#009af9" fill-rule="evenodd" fill-opacity="1"/>
<polyline clip-path="url(#clip062)" style="stroke:#000000; stroke-linecap:butt; stroke-linejoin:round; stroke-width:4; stroke-opacity:1; fill:none" points="
  683.399,1384.24 683.399,1384.24 684.489,1384.24 683.399,1384.24 
  "/>
<path clip-path="url(#clip062)" d="
M684.489 1376.31 L684.489 1384.24 L685.579 1384.24 L685.579 1376.31 L684.489 1376.31 L684.489 1376.31  Z
  " fill="#009af9" fill-rule="evenodd" fill-opacity="1"/>
<polyline clip-path="url(#clip062)" style="stroke:#000000; stroke-linecap:butt; stroke-linejoin:round; stroke-width:4; stroke-opacity:1; fill:none" points="
  684.489,1376.31 684.489,1384.24 685.579,1384.24 685.579,1376.31 684.489,1376.31 
  "/>
<path clip-path="url(#clip062)" d="
M685.579 1378.95 L685.579 1384.24 L686.67 1384.24 L686.67 1378.95 L685.579 1378.95 L685.579 1378.95  Z
  " fill="#009af9" fill-rule="evenodd" fill-opacity="1"/>
<polyline clip-path="url(#clip062)" style="stroke:#000000; stroke-linecap:butt; stroke-linejoin:round; stroke-width:4; stroke-opacity:1; fill:none" points="
  685.579,1378.95 685.579,1384.24 686.67,1384.24 686.67,1378.95 685.579,1378.95 
  "/>
<path clip-path="url(#clip062)" d="
M686.67 1376.31 L686.67 1384.24 L687.76 1384.24 L687.76 1376.31 L686.67 1376.31 L686.67 1376.31  Z
  " fill="#009af9" fill-rule="evenodd" fill-opacity="1"/>
<polyline clip-path="url(#clip062)" style="stroke:#000000; stroke-linecap:butt; stroke-linejoin:round; stroke-width:4; stroke-opacity:1; fill:none" points="
  686.67,1376.31 686.67,1384.24 687.76,1384.24 687.76,1376.31 686.67,1376.31 
  "/>
<path clip-path="url(#clip062)" d="
M687.76 1378.95 L687.76 1384.24 L688.85 1384.24 L688.85 1378.95 L687.76 1378.95 L687.76 1378.95  Z
  " fill="#009af9" fill-rule="evenodd" fill-opacity="1"/>
<polyline clip-path="url(#clip062)" style="stroke:#000000; stroke-linecap:butt; stroke-linejoin:round; stroke-width:4; stroke-opacity:1; fill:none" points="
  687.76,1378.95 687.76,1384.24 688.85,1384.24 688.85,1378.95 687.76,1378.95 
  "/>
<path clip-path="url(#clip062)" d="
M688.85 1371.02 L688.85 1384.24 L689.941 1384.24 L689.941 1371.02 L688.85 1371.02 L688.85 1371.02  Z
  " fill="#009af9" fill-rule="evenodd" fill-opacity="1"/>
<polyline clip-path="url(#clip062)" style="stroke:#000000; stroke-linecap:butt; stroke-linejoin:round; stroke-width:4; stroke-opacity:1; fill:none" points="
  688.85,1371.02 688.85,1384.24 689.941,1384.24 689.941,1371.02 688.85,1371.02 
  "/>
<path clip-path="url(#clip062)" d="
M689.941 1363.09 L689.941 1384.24 L691.031 1384.24 L691.031 1363.09 L689.941 1363.09 L689.941 1363.09  Z
  " fill="#009af9" fill-rule="evenodd" fill-opacity="1"/>
<polyline clip-path="url(#clip062)" style="stroke:#000000; stroke-linecap:butt; stroke-linejoin:round; stroke-width:4; stroke-opacity:1; fill:none" points="
  689.941,1363.09 689.941,1384.24 691.031,1384.24 691.031,1363.09 689.941,1363.09 
  "/>
<path clip-path="url(#clip062)" d="
M691.031 1352.51 L691.031 1384.24 L692.122 1384.24 L692.122 1352.51 L691.031 1352.51 L691.031 1352.51  Z
  " fill="#009af9" fill-rule="evenodd" fill-opacity="1"/>
<polyline clip-path="url(#clip062)" style="stroke:#000000; stroke-linecap:butt; stroke-linejoin:round; stroke-width:4; stroke-opacity:1; fill:none" points="
  691.031,1352.51 691.031,1384.24 692.122,1384.24 692.122,1352.51 691.031,1352.51 
  "/>
<path clip-path="url(#clip062)" d="
M692.122 1363.09 L692.122 1384.24 L693.212 1384.24 L693.212 1363.09 L692.122 1363.09 L692.122 1363.09  Z
  " fill="#009af9" fill-rule="evenodd" fill-opacity="1"/>
<polyline clip-path="url(#clip062)" style="stroke:#000000; stroke-linecap:butt; stroke-linejoin:round; stroke-width:4; stroke-opacity:1; fill:none" points="
  692.122,1363.09 692.122,1384.24 693.212,1384.24 693.212,1363.09 692.122,1363.09 
  "/>
<path clip-path="url(#clip062)" d="
M693.212 1326.08 L693.212 1384.24 L694.302 1384.24 L694.302 1326.08 L693.212 1326.08 L693.212 1326.08  Z
  " fill="#009af9" fill-rule="evenodd" fill-opacity="1"/>
<polyline clip-path="url(#clip062)" style="stroke:#000000; stroke-linecap:butt; stroke-linejoin:round; stroke-width:4; stroke-opacity:1; fill:none" points="
  693.212,1326.08 693.212,1384.24 694.302,1384.24 694.302,1326.08 693.212,1326.08 
  "/>
<path clip-path="url(#clip062)" d="
M694.302 1307.57 L694.302 1384.24 L695.393 1384.24 L695.393 1307.57 L694.302 1307.57 L694.302 1307.57  Z
  " fill="#009af9" fill-rule="evenodd" fill-opacity="1"/>
<polyline clip-path="url(#clip062)" style="stroke:#000000; stroke-linecap:butt; stroke-linejoin:round; stroke-width:4; stroke-opacity:1; fill:none" points="
  694.302,1307.57 694.302,1384.24 695.393,1384.24 695.393,1307.57 694.302,1307.57 
  "/>
<path clip-path="url(#clip062)" d="
M695.393 1259.98 L695.393 1384.24 L696.483 1384.24 L696.483 1259.98 L695.393 1259.98 L695.393 1259.98  Z
  " fill="#009af9" fill-rule="evenodd" fill-opacity="1"/>
<polyline clip-path="url(#clip062)" style="stroke:#000000; stroke-linecap:butt; stroke-linejoin:round; stroke-width:4; stroke-opacity:1; fill:none" points="
  695.393,1259.98 695.393,1384.24 696.483,1384.24 696.483,1259.98 695.393,1259.98 
  "/>
<path clip-path="url(#clip062)" d="
M696.483 1267.92 L696.483 1384.24 L697.573 1384.24 L697.573 1267.92 L696.483 1267.92 L696.483 1267.92  Z
  " fill="#009af9" fill-rule="evenodd" fill-opacity="1"/>
<polyline clip-path="url(#clip062)" style="stroke:#000000; stroke-linecap:butt; stroke-linejoin:round; stroke-width:4; stroke-opacity:1; fill:none" points="
  696.483,1267.92 696.483,1384.24 697.573,1384.24 697.573,1267.92 696.483,1267.92 
  "/>
<path clip-path="url(#clip062)" d="
M697.573 1196.54 L697.573 1384.24 L698.664 1384.24 L698.664 1196.54 L697.573 1196.54 L697.573 1196.54  Z
  " fill="#009af9" fill-rule="evenodd" fill-opacity="1"/>
<polyline clip-path="url(#clip062)" style="stroke:#000000; stroke-linecap:butt; stroke-linejoin:round; stroke-width:4; stroke-opacity:1; fill:none" points="
  697.573,1196.54 697.573,1384.24 698.664,1384.24 698.664,1196.54 697.573,1196.54 
  "/>
<path clip-path="url(#clip062)" d="
M698.664 1141.02 L698.664 1384.24 L699.754 1384.24 L699.754 1141.02 L698.664 1141.02 L698.664 1141.02  Z
  " fill="#009af9" fill-rule="evenodd" fill-opacity="1"/>
<polyline clip-path="url(#clip062)" style="stroke:#000000; stroke-linecap:butt; stroke-linejoin:round; stroke-width:4; stroke-opacity:1; fill:none" points="
  698.664,1141.02 698.664,1384.24 699.754,1384.24 699.754,1141.02 698.664,1141.02 
  "/>
<path clip-path="url(#clip062)" d="
M699.754 1164.81 L699.754 1384.24 L700.845 1384.24 L700.845 1164.81 L699.754 1164.81 L699.754 1164.81  Z
  " fill="#009af9" fill-rule="evenodd" fill-opacity="1"/>
<polyline clip-path="url(#clip062)" style="stroke:#000000; stroke-linecap:butt; stroke-linejoin:round; stroke-width:4; stroke-opacity:1; fill:none" points="
  699.754,1164.81 699.754,1384.24 700.845,1384.24 700.845,1164.81 699.754,1164.81 
  "/>
<path clip-path="url(#clip062)" d="
M700.845 1117.23 L700.845 1384.24 L701.935 1384.24 L701.935 1117.23 L700.845 1117.23 L700.845 1117.23  Z
  " fill="#009af9" fill-rule="evenodd" fill-opacity="1"/>
<polyline clip-path="url(#clip062)" style="stroke:#000000; stroke-linecap:butt; stroke-linejoin:round; stroke-width:4; stroke-opacity:1; fill:none" points="
  700.845,1117.23 700.845,1384.24 701.935,1384.24 701.935,1117.23 700.845,1117.23 
  "/>
<path clip-path="url(#clip062)" d="
M701.935 1067 L701.935 1384.24 L703.025 1384.24 L703.025 1067 L701.935 1067 L701.935 1067  Z
  " fill="#009af9" fill-rule="evenodd" fill-opacity="1"/>
<polyline clip-path="url(#clip062)" style="stroke:#000000; stroke-linecap:butt; stroke-linejoin:round; stroke-width:4; stroke-opacity:1; fill:none" points="
  701.935,1067 701.935,1384.24 703.025,1384.24 703.025,1067 701.935,1067 
  "/>
<path clip-path="url(#clip062)" d="
M703.025 958.604 L703.025 1384.24 L704.116 1384.24 L704.116 958.604 L703.025 958.604 L703.025 958.604  Z
  " fill="#009af9" fill-rule="evenodd" fill-opacity="1"/>
<polyline clip-path="url(#clip062)" style="stroke:#000000; stroke-linecap:butt; stroke-linejoin:round; stroke-width:4; stroke-opacity:1; fill:none" points="
  703.025,958.604 703.025,1384.24 704.116,1384.24 704.116,958.604 703.025,958.604 
  "/>
<path clip-path="url(#clip062)" d="
M704.116 876.649 L704.116 1384.24 L705.206 1384.24 L705.206 876.649 L704.116 876.649 L704.116 876.649  Z
  " fill="#009af9" fill-rule="evenodd" fill-opacity="1"/>
<polyline clip-path="url(#clip062)" style="stroke:#000000; stroke-linecap:butt; stroke-linejoin:round; stroke-width:4; stroke-opacity:1; fill:none" points="
  704.116,876.649 704.116,1384.24 705.206,1384.24 705.206,876.649 704.116,876.649 
  "/>
<path clip-path="url(#clip062)" d="
M705.206 792.051 L705.206 1384.24 L706.296 1384.24 L706.296 792.051 L705.206 792.051 L705.206 792.051  Z
  " fill="#009af9" fill-rule="evenodd" fill-opacity="1"/>
<polyline clip-path="url(#clip062)" style="stroke:#000000; stroke-linecap:butt; stroke-linejoin:round; stroke-width:4; stroke-opacity:1; fill:none" points="
  705.206,792.051 705.206,1384.24 706.296,1384.24 706.296,792.051 705.206,792.051 
  "/>
<path clip-path="url(#clip062)" d="
M706.296 715.384 L706.296 1384.24 L707.387 1384.24 L707.387 715.384 L706.296 715.384 L706.296 715.384  Z
  " fill="#009af9" fill-rule="evenodd" fill-opacity="1"/>
<polyline clip-path="url(#clip062)" style="stroke:#000000; stroke-linecap:butt; stroke-linejoin:round; stroke-width:4; stroke-opacity:1; fill:none" points="
  706.296,715.384 706.296,1384.24 707.387,1384.24 707.387,715.384 706.296,715.384 
  "/>
<path clip-path="url(#clip062)" d="
M707.387 575.269 L707.387 1384.24 L708.477 1384.24 L708.477 575.269 L707.387 575.269 L707.387 575.269  Z
  " fill="#009af9" fill-rule="evenodd" fill-opacity="1"/>
<polyline clip-path="url(#clip062)" style="stroke:#000000; stroke-linecap:butt; stroke-linejoin:round; stroke-width:4; stroke-opacity:1; fill:none" points="
  707.387,575.269 707.387,1384.24 708.477,1384.24 708.477,575.269 707.387,575.269 
  "/>
<path clip-path="url(#clip062)" d="
M708.477 588.487 L708.477 1384.24 L709.567 1384.24 L709.567 588.487 L708.477 588.487 L708.477 588.487  Z
  " fill="#009af9" fill-rule="evenodd" fill-opacity="1"/>
<polyline clip-path="url(#clip062)" style="stroke:#000000; stroke-linecap:butt; stroke-linejoin:round; stroke-width:4; stroke-opacity:1; fill:none" points="
  708.477,588.487 708.477,1384.24 709.567,1384.24 709.567,588.487 708.477,588.487 
  "/>
<path clip-path="url(#clip062)" d="
M709.567 400.785 L709.567 1384.24 L710.658 1384.24 L710.658 400.785 L709.567 400.785 L709.567 400.785  Z
  " fill="#009af9" fill-rule="evenodd" fill-opacity="1"/>
<polyline clip-path="url(#clip062)" style="stroke:#000000; stroke-linecap:butt; stroke-linejoin:round; stroke-width:4; stroke-opacity:1; fill:none" points="
  709.567,400.785 709.567,1384.24 710.658,1384.24 710.658,400.785 709.567,400.785 
  "/>
<path clip-path="url(#clip062)" d="
M710.658 443.084 L710.658 1384.24 L711.748 1384.24 L711.748 443.084 L710.658 443.084 L710.658 443.084  Z
  " fill="#009af9" fill-rule="evenodd" fill-opacity="1"/>
<polyline clip-path="url(#clip062)" style="stroke:#000000; stroke-linecap:butt; stroke-linejoin:round; stroke-width:4; stroke-opacity:1; fill:none" points="
  710.658,443.084 710.658,1384.24 711.748,1384.24 711.748,443.084 710.658,443.084 
  "/>
<path clip-path="url(#clip062)" d="
M711.748 355.842 L711.748 1384.24 L712.839 1384.24 L712.839 355.842 L711.748 355.842 L711.748 355.842  Z
  " fill="#009af9" fill-rule="evenodd" fill-opacity="1"/>
<polyline clip-path="url(#clip062)" style="stroke:#000000; stroke-linecap:butt; stroke-linejoin:round; stroke-width:4; stroke-opacity:1; fill:none" points="
  711.748,355.842 711.748,1384.24 712.839,1384.24 712.839,355.842 711.748,355.842 
  "/>
<path clip-path="url(#clip062)" d="
M712.839 199.864 L712.839 1384.24 L713.929 1384.24 L713.929 199.864 L712.839 199.864 L712.839 199.864  Z
  " fill="#009af9" fill-rule="evenodd" fill-opacity="1"/>
<polyline clip-path="url(#clip062)" style="stroke:#000000; stroke-linecap:butt; stroke-linejoin:round; stroke-width:4; stroke-opacity:1; fill:none" points="
  712.839,199.864 712.839,1384.24 713.929,1384.24 713.929,199.864 712.839,199.864 
  "/>
<path clip-path="url(#clip062)" d="
M713.929 339.98 L713.929 1384.24 L715.019 1384.24 L715.019 339.98 L713.929 339.98 L713.929 339.98  Z
  " fill="#009af9" fill-rule="evenodd" fill-opacity="1"/>
<polyline clip-path="url(#clip062)" style="stroke:#000000; stroke-linecap:butt; stroke-linejoin:round; stroke-width:4; stroke-opacity:1; fill:none" points="
  713.929,339.98 713.929,1384.24 715.019,1384.24 715.019,339.98 713.929,339.98 
  "/>
<path clip-path="url(#clip062)" d="
M715.019 86.1857 L715.019 1384.24 L716.11 1384.24 L716.11 86.1857 L715.019 86.1857 L715.019 86.1857  Z
  " fill="#009af9" fill-rule="evenodd" fill-opacity="1"/>
<polyline clip-path="url(#clip062)" style="stroke:#000000; stroke-linecap:butt; stroke-linejoin:round; stroke-width:4; stroke-opacity:1; fill:none" points="
  715.019,86.1857 715.019,1384.24 716.11,1384.24 716.11,86.1857 715.019,86.1857 
  "/>
<path clip-path="url(#clip062)" d="
M716.11 152.278 L716.11 1384.24 L717.2 1384.24 L717.2 152.278 L716.11 152.278 L716.11 152.278  Z
  " fill="#009af9" fill-rule="evenodd" fill-opacity="1"/>
<polyline clip-path="url(#clip062)" style="stroke:#000000; stroke-linecap:butt; stroke-linejoin:round; stroke-width:4; stroke-opacity:1; fill:none" points="
  716.11,152.278 716.11,1384.24 717.2,1384.24 717.2,152.278 716.11,152.278 
  "/>
<path clip-path="url(#clip062)" d="
M717.2 205.152 L717.2 1384.24 L718.29 1384.24 L718.29 205.152 L717.2 205.152 L717.2 205.152  Z
  " fill="#009af9" fill-rule="evenodd" fill-opacity="1"/>
<polyline clip-path="url(#clip062)" style="stroke:#000000; stroke-linecap:butt; stroke-linejoin:round; stroke-width:4; stroke-opacity:1; fill:none" points="
  717.2,205.152 717.2,1384.24 718.29,1384.24 718.29,205.152 717.2,205.152 
  "/>
<path clip-path="url(#clip062)" d="
M718.29 115.266 L718.29 1384.24 L719.381 1384.24 L719.381 115.266 L718.29 115.266 L718.29 115.266  Z
  " fill="#009af9" fill-rule="evenodd" fill-opacity="1"/>
<polyline clip-path="url(#clip062)" style="stroke:#000000; stroke-linecap:butt; stroke-linejoin:round; stroke-width:4; stroke-opacity:1; fill:none" points="
  718.29,115.266 718.29,1384.24 719.381,1384.24 719.381,115.266 718.29,115.266 
  "/>
<path clip-path="url(#clip062)" d="
M719.381 194.577 L719.381 1384.24 L720.471 1384.24 L720.471 194.577 L719.381 194.577 L719.381 194.577  Z
  " fill="#009af9" fill-rule="evenodd" fill-opacity="1"/>
<polyline clip-path="url(#clip062)" style="stroke:#000000; stroke-linecap:butt; stroke-linejoin:round; stroke-width:4; stroke-opacity:1; fill:none" points="
  719.381,194.577 719.381,1384.24 720.471,1384.24 720.471,194.577 719.381,194.577 
  "/>
<path clip-path="url(#clip062)" d="
M720.471 207.795 L720.471 1384.24 L721.562 1384.24 L721.562 207.795 L720.471 207.795 L720.471 207.795  Z
  " fill="#009af9" fill-rule="evenodd" fill-opacity="1"/>
<polyline clip-path="url(#clip062)" style="stroke:#000000; stroke-linecap:butt; stroke-linejoin:round; stroke-width:4; stroke-opacity:1; fill:none" points="
  720.471,207.795 720.471,1384.24 721.562,1384.24 721.562,207.795 720.471,207.795 
  "/>
<path clip-path="url(#clip062)" d="
M721.562 400.785 L721.562 1384.24 L722.652 1384.24 L722.652 400.785 L721.562 400.785 L721.562 400.785  Z
  " fill="#009af9" fill-rule="evenodd" fill-opacity="1"/>
<polyline clip-path="url(#clip062)" style="stroke:#000000; stroke-linecap:butt; stroke-linejoin:round; stroke-width:4; stroke-opacity:1; fill:none" points="
  721.562,400.785 721.562,1384.24 722.652,1384.24 722.652,400.785 721.562,400.785 
  "/>
<path clip-path="url(#clip062)" d="
M722.652 361.13 L722.652 1384.24 L723.742 1384.24 L723.742 361.13 L722.652 361.13 L722.652 361.13  Z
  " fill="#009af9" fill-rule="evenodd" fill-opacity="1"/>
<polyline clip-path="url(#clip062)" style="stroke:#000000; stroke-linecap:butt; stroke-linejoin:round; stroke-width:4; stroke-opacity:1; fill:none" points="
  722.652,361.13 722.652,1384.24 723.742,1384.24 723.742,361.13 722.652,361.13 
  "/>
<path clip-path="url(#clip062)" d="
M723.742 527.682 L723.742 1384.24 L724.833 1384.24 L724.833 527.682 L723.742 527.682 L723.742 527.682  Z
  " fill="#009af9" fill-rule="evenodd" fill-opacity="1"/>
<polyline clip-path="url(#clip062)" style="stroke:#000000; stroke-linecap:butt; stroke-linejoin:round; stroke-width:4; stroke-opacity:1; fill:none" points="
  723.742,527.682 723.742,1384.24 724.833,1384.24 724.833,527.682 723.742,527.682 
  "/>
<path clip-path="url(#clip062)" d="
M724.833 543.544 L724.833 1384.24 L725.923 1384.24 L725.923 543.544 L724.833 543.544 L724.833 543.544  Z
  " fill="#009af9" fill-rule="evenodd" fill-opacity="1"/>
<polyline clip-path="url(#clip062)" style="stroke:#000000; stroke-linecap:butt; stroke-linejoin:round; stroke-width:4; stroke-opacity:1; fill:none" points="
  724.833,543.544 724.833,1384.24 725.923,1384.24 725.923,543.544 724.833,543.544 
  "/>
<path clip-path="url(#clip062)" d="
M725.923 644.005 L725.923 1384.24 L727.013 1384.24 L727.013 644.005 L725.923 644.005 L725.923 644.005  Z
  " fill="#009af9" fill-rule="evenodd" fill-opacity="1"/>
<polyline clip-path="url(#clip062)" style="stroke:#000000; stroke-linecap:butt; stroke-linejoin:round; stroke-width:4; stroke-opacity:1; fill:none" points="
  725.923,644.005 725.923,1384.24 727.013,1384.24 727.013,644.005 725.923,644.005 
  "/>
<path clip-path="url(#clip062)" d="
M727.013 715.384 L727.013 1384.24 L728.104 1384.24 L728.104 715.384 L727.013 715.384 L727.013 715.384  Z
  " fill="#009af9" fill-rule="evenodd" fill-opacity="1"/>
<polyline clip-path="url(#clip062)" style="stroke:#000000; stroke-linecap:butt; stroke-linejoin:round; stroke-width:4; stroke-opacity:1; fill:none" points="
  727.013,715.384 727.013,1384.24 728.104,1384.24 728.104,715.384 727.013,715.384 
  "/>
<path clip-path="url(#clip062)" d="
M728.104 797.339 L728.104 1384.24 L729.194 1384.24 L729.194 797.339 L728.104 797.339 L728.104 797.339  Z
  " fill="#009af9" fill-rule="evenodd" fill-opacity="1"/>
<polyline clip-path="url(#clip062)" style="stroke:#000000; stroke-linecap:butt; stroke-linejoin:round; stroke-width:4; stroke-opacity:1; fill:none" points="
  728.104,797.339 728.104,1384.24 729.194,1384.24 729.194,797.339 728.104,797.339 
  "/>
<path clip-path="url(#clip062)" d="
M729.194 932.167 L729.194 1384.24 L730.285 1384.24 L730.285 932.167 L729.194 932.167 L729.194 932.167  Z
  " fill="#009af9" fill-rule="evenodd" fill-opacity="1"/>
<polyline clip-path="url(#clip062)" style="stroke:#000000; stroke-linecap:butt; stroke-linejoin:round; stroke-width:4; stroke-opacity:1; fill:none" points="
  729.194,932.167 729.194,1384.24 730.285,1384.24 730.285,932.167 729.194,932.167 
  "/>
<path clip-path="url(#clip062)" d="
M730.285 924.236 L730.285 1384.24 L731.375 1384.24 L731.375 924.236 L730.285 924.236 L730.285 924.236  Z
  " fill="#009af9" fill-rule="evenodd" fill-opacity="1"/>
<polyline clip-path="url(#clip062)" style="stroke:#000000; stroke-linecap:butt; stroke-linejoin:round; stroke-width:4; stroke-opacity:1; fill:none" points="
  730.285,924.236 730.285,1384.24 731.375,1384.24 731.375,924.236 730.285,924.236 
  "/>
<path clip-path="url(#clip062)" d="
M731.375 1056.42 L731.375 1384.24 L732.465 1384.24 L732.465 1056.42 L731.375 1056.42 L731.375 1056.42  Z
  " fill="#009af9" fill-rule="evenodd" fill-opacity="1"/>
<polyline clip-path="url(#clip062)" style="stroke:#000000; stroke-linecap:butt; stroke-linejoin:round; stroke-width:4; stroke-opacity:1; fill:none" points="
  731.375,1056.42 731.375,1384.24 732.465,1384.24 732.465,1056.42 731.375,1056.42 
  "/>
<path clip-path="url(#clip062)" d="
M732.465 1080.21 L732.465 1384.24 L733.556 1384.24 L733.556 1080.21 L732.465 1080.21 L732.465 1080.21  Z
  " fill="#009af9" fill-rule="evenodd" fill-opacity="1"/>
<polyline clip-path="url(#clip062)" style="stroke:#000000; stroke-linecap:butt; stroke-linejoin:round; stroke-width:4; stroke-opacity:1; fill:none" points="
  732.465,1080.21 732.465,1384.24 733.556,1384.24 733.556,1080.21 732.465,1080.21 
  "/>
<path clip-path="url(#clip062)" d="
M733.556 1114.58 L733.556 1384.24 L734.646 1384.24 L734.646 1114.58 L733.556 1114.58 L733.556 1114.58  Z
  " fill="#009af9" fill-rule="evenodd" fill-opacity="1"/>
<polyline clip-path="url(#clip062)" style="stroke:#000000; stroke-linecap:butt; stroke-linejoin:round; stroke-width:4; stroke-opacity:1; fill:none" points="
  733.556,1114.58 733.556,1384.24 734.646,1384.24 734.646,1114.58 733.556,1114.58 
  "/>
<path clip-path="url(#clip062)" d="
M734.646 1225.62 L734.646 1384.24 L735.736 1384.24 L735.736 1225.62 L734.646 1225.62 L734.646 1225.62  Z
  " fill="#009af9" fill-rule="evenodd" fill-opacity="1"/>
<polyline clip-path="url(#clip062)" style="stroke:#000000; stroke-linecap:butt; stroke-linejoin:round; stroke-width:4; stroke-opacity:1; fill:none" points="
  734.646,1225.62 734.646,1384.24 735.736,1384.24 735.736,1225.62 734.646,1225.62 
  "/>
<path clip-path="url(#clip062)" d="
M735.736 1193.89 L735.736 1384.24 L736.827 1384.24 L736.827 1193.89 L735.736 1193.89 L735.736 1193.89  Z
  " fill="#009af9" fill-rule="evenodd" fill-opacity="1"/>
<polyline clip-path="url(#clip062)" style="stroke:#000000; stroke-linecap:butt; stroke-linejoin:round; stroke-width:4; stroke-opacity:1; fill:none" points="
  735.736,1193.89 735.736,1384.24 736.827,1384.24 736.827,1193.89 735.736,1193.89 
  "/>
<path clip-path="url(#clip062)" d="
M736.827 1233.55 L736.827 1384.24 L737.917 1384.24 L737.917 1233.55 L736.827 1233.55 L736.827 1233.55  Z
  " fill="#009af9" fill-rule="evenodd" fill-opacity="1"/>
<polyline clip-path="url(#clip062)" style="stroke:#000000; stroke-linecap:butt; stroke-linejoin:round; stroke-width:4; stroke-opacity:1; fill:none" points="
  736.827,1233.55 736.827,1384.24 737.917,1384.24 737.917,1233.55 736.827,1233.55 
  "/>
<path clip-path="url(#clip062)" d="
M737.917 1299.64 L737.917 1384.24 L739.008 1384.24 L739.008 1299.64 L737.917 1299.64 L737.917 1299.64  Z
  " fill="#009af9" fill-rule="evenodd" fill-opacity="1"/>
<polyline clip-path="url(#clip062)" style="stroke:#000000; stroke-linecap:butt; stroke-linejoin:round; stroke-width:4; stroke-opacity:1; fill:none" points="
  737.917,1299.64 737.917,1384.24 739.008,1384.24 739.008,1299.64 737.917,1299.64 
  "/>
<path clip-path="url(#clip062)" d="
M739.008 1310.21 L739.008 1384.24 L740.098 1384.24 L740.098 1310.21 L739.008 1310.21 L739.008 1310.21  Z
  " fill="#009af9" fill-rule="evenodd" fill-opacity="1"/>
<polyline clip-path="url(#clip062)" style="stroke:#000000; stroke-linecap:butt; stroke-linejoin:round; stroke-width:4; stroke-opacity:1; fill:none" points="
  739.008,1310.21 739.008,1384.24 740.098,1384.24 740.098,1310.21 739.008,1310.21 
  "/>
<path clip-path="url(#clip062)" d="
M740.098 1328.72 L740.098 1384.24 L741.188 1384.24 L741.188 1328.72 L740.098 1328.72 L740.098 1328.72  Z
  " fill="#009af9" fill-rule="evenodd" fill-opacity="1"/>
<polyline clip-path="url(#clip062)" style="stroke:#000000; stroke-linecap:butt; stroke-linejoin:round; stroke-width:4; stroke-opacity:1; fill:none" points="
  740.098,1328.72 740.098,1384.24 741.188,1384.24 741.188,1328.72 740.098,1328.72 
  "/>
<path clip-path="url(#clip062)" d="
M741.188 1341.94 L741.188 1384.24 L742.279 1384.24 L742.279 1341.94 L741.188 1341.94 L741.188 1341.94  Z
  " fill="#009af9" fill-rule="evenodd" fill-opacity="1"/>
<polyline clip-path="url(#clip062)" style="stroke:#000000; stroke-linecap:butt; stroke-linejoin:round; stroke-width:4; stroke-opacity:1; fill:none" points="
  741.188,1341.94 741.188,1384.24 742.279,1384.24 742.279,1341.94 741.188,1341.94 
  "/>
<path clip-path="url(#clip062)" d="
M742.279 1344.58 L742.279 1384.24 L743.369 1384.24 L743.369 1344.58 L742.279 1344.58 L742.279 1344.58  Z
  " fill="#009af9" fill-rule="evenodd" fill-opacity="1"/>
<polyline clip-path="url(#clip062)" style="stroke:#000000; stroke-linecap:butt; stroke-linejoin:round; stroke-width:4; stroke-opacity:1; fill:none" points="
  742.279,1344.58 742.279,1384.24 743.369,1384.24 743.369,1344.58 742.279,1344.58 
  "/>
<path clip-path="url(#clip062)" d="
M743.369 1344.58 L743.369 1384.24 L744.459 1384.24 L744.459 1344.58 L743.369 1344.58 L743.369 1344.58  Z
  " fill="#009af9" fill-rule="evenodd" fill-opacity="1"/>
<polyline clip-path="url(#clip062)" style="stroke:#000000; stroke-linecap:butt; stroke-linejoin:round; stroke-width:4; stroke-opacity:1; fill:none" points="
  743.369,1344.58 743.369,1384.24 744.459,1384.24 744.459,1344.58 743.369,1344.58 
  "/>
<path clip-path="url(#clip062)" d="
M744.459 1368.38 L744.459 1384.24 L745.55 1384.24 L745.55 1368.38 L744.459 1368.38 L744.459 1368.38  Z
  " fill="#009af9" fill-rule="evenodd" fill-opacity="1"/>
<polyline clip-path="url(#clip062)" style="stroke:#000000; stroke-linecap:butt; stroke-linejoin:round; stroke-width:4; stroke-opacity:1; fill:none" points="
  744.459,1368.38 744.459,1384.24 745.55,1384.24 745.55,1368.38 744.459,1368.38 
  "/>
<path clip-path="url(#clip062)" d="
M745.55 1378.95 L745.55 1384.24 L746.64 1384.24 L746.64 1378.95 L745.55 1378.95 L745.55 1378.95  Z
  " fill="#009af9" fill-rule="evenodd" fill-opacity="1"/>
<polyline clip-path="url(#clip062)" style="stroke:#000000; stroke-linecap:butt; stroke-linejoin:round; stroke-width:4; stroke-opacity:1; fill:none" points="
  745.55,1378.95 745.55,1384.24 746.64,1384.24 746.64,1378.95 745.55,1378.95 
  "/>
<path clip-path="url(#clip062)" d="
M746.64 1376.31 L746.64 1384.24 L747.73 1384.24 L747.73 1376.31 L746.64 1376.31 L746.64 1376.31  Z
  " fill="#009af9" fill-rule="evenodd" fill-opacity="1"/>
<polyline clip-path="url(#clip062)" style="stroke:#000000; stroke-linecap:butt; stroke-linejoin:round; stroke-width:4; stroke-opacity:1; fill:none" points="
  746.64,1376.31 746.64,1384.24 747.73,1384.24 747.73,1376.31 746.64,1376.31 
  "/>
<path clip-path="url(#clip062)" d="
M747.73 1381.59 L747.73 1384.24 L748.821 1384.24 L748.821 1381.59 L747.73 1381.59 L747.73 1381.59  Z
  " fill="#009af9" fill-rule="evenodd" fill-opacity="1"/>
<polyline clip-path="url(#clip062)" style="stroke:#000000; stroke-linecap:butt; stroke-linejoin:round; stroke-width:4; stroke-opacity:1; fill:none" points="
  747.73,1381.59 747.73,1384.24 748.821,1384.24 748.821,1381.59 747.73,1381.59 
  "/>
<path clip-path="url(#clip062)" d="
M748.821 1381.59 L748.821 1384.24 L749.911 1384.24 L749.911 1381.59 L748.821 1381.59 L748.821 1381.59  Z
  " fill="#009af9" fill-rule="evenodd" fill-opacity="1"/>
<polyline clip-path="url(#clip062)" style="stroke:#000000; stroke-linecap:butt; stroke-linejoin:round; stroke-width:4; stroke-opacity:1; fill:none" points="
  748.821,1381.59 748.821,1384.24 749.911,1384.24 749.911,1381.59 748.821,1381.59 
  "/>
<path clip-path="url(#clip062)" d="
M749.911 1381.59 L749.911 1384.24 L751.002 1384.24 L751.002 1381.59 L749.911 1381.59 L749.911 1381.59  Z
  " fill="#009af9" fill-rule="evenodd" fill-opacity="1"/>
<polyline clip-path="url(#clip062)" style="stroke:#000000; stroke-linecap:butt; stroke-linejoin:round; stroke-width:4; stroke-opacity:1; fill:none" points="
  749.911,1381.59 749.911,1384.24 751.002,1384.24 751.002,1381.59 749.911,1381.59 
  "/>
<circle clip-path="url(#clip062)" style="fill:#009af9; stroke:none; fill-opacity:0" cx="682.853" cy="1381.59" r="2"/>
<circle clip-path="url(#clip062)" style="fill:#009af9; stroke:none; fill-opacity:0" cx="683.944" cy="1384.24" r="2"/>
<circle clip-path="url(#clip062)" style="fill:#009af9; stroke:none; fill-opacity:0" cx="685.034" cy="1376.31" r="2"/>
<circle clip-path="url(#clip062)" style="fill:#009af9; stroke:none; fill-opacity:0" cx="686.125" cy="1378.95" r="2"/>
<circle clip-path="url(#clip062)" style="fill:#009af9; stroke:none; fill-opacity:0" cx="687.215" cy="1376.31" r="2"/>
<circle clip-path="url(#clip062)" style="fill:#009af9; stroke:none; fill-opacity:0" cx="688.305" cy="1378.95" r="2"/>
<circle clip-path="url(#clip062)" style="fill:#009af9; stroke:none; fill-opacity:0" cx="689.396" cy="1371.02" r="2"/>
<circle clip-path="url(#clip062)" style="fill:#009af9; stroke:none; fill-opacity:0" cx="690.486" cy="1363.09" r="2"/>
<circle clip-path="url(#clip062)" style="fill:#009af9; stroke:none; fill-opacity:0" cx="691.576" cy="1352.51" r="2"/>
<circle clip-path="url(#clip062)" style="fill:#009af9; stroke:none; fill-opacity:0" cx="692.667" cy="1363.09" r="2"/>
<circle clip-path="url(#clip062)" style="fill:#009af9; stroke:none; fill-opacity:0" cx="693.757" cy="1326.08" r="2"/>
<circle clip-path="url(#clip062)" style="fill:#009af9; stroke:none; fill-opacity:0" cx="694.847" cy="1307.57" r="2"/>
<circle clip-path="url(#clip062)" style="fill:#009af9; stroke:none; fill-opacity:0" cx="695.938" cy="1259.98" r="2"/>
<circle clip-path="url(#clip062)" style="fill:#009af9; stroke:none; fill-opacity:0" cx="697.028" cy="1267.92" r="2"/>
<circle clip-path="url(#clip062)" style="fill:#009af9; stroke:none; fill-opacity:0" cx="698.119" cy="1196.54" r="2"/>
<circle clip-path="url(#clip062)" style="fill:#009af9; stroke:none; fill-opacity:0" cx="699.209" cy="1141.02" r="2"/>
<circle clip-path="url(#clip062)" style="fill:#009af9; stroke:none; fill-opacity:0" cx="700.299" cy="1164.81" r="2"/>
<circle clip-path="url(#clip062)" style="fill:#009af9; stroke:none; fill-opacity:0" cx="701.39" cy="1117.23" r="2"/>
<circle clip-path="url(#clip062)" style="fill:#009af9; stroke:none; fill-opacity:0" cx="702.48" cy="1067" r="2"/>
<circle clip-path="url(#clip062)" style="fill:#009af9; stroke:none; fill-opacity:0" cx="703.57" cy="958.604" r="2"/>
<circle clip-path="url(#clip062)" style="fill:#009af9; stroke:none; fill-opacity:0" cx="704.661" cy="876.649" r="2"/>
<circle clip-path="url(#clip062)" style="fill:#009af9; stroke:none; fill-opacity:0" cx="705.751" cy="792.051" r="2"/>
<circle clip-path="url(#clip062)" style="fill:#009af9; stroke:none; fill-opacity:0" cx="706.842" cy="715.384" r="2"/>
<circle clip-path="url(#clip062)" style="fill:#009af9; stroke:none; fill-opacity:0" cx="707.932" cy="575.269" r="2"/>
<circle clip-path="url(#clip062)" style="fill:#009af9; stroke:none; fill-opacity:0" cx="709.022" cy="588.487" r="2"/>
<circle clip-path="url(#clip062)" style="fill:#009af9; stroke:none; fill-opacity:0" cx="710.113" cy="400.785" r="2"/>
<circle clip-path="url(#clip062)" style="fill:#009af9; stroke:none; fill-opacity:0" cx="711.203" cy="443.084" r="2"/>
<circle clip-path="url(#clip062)" style="fill:#009af9; stroke:none; fill-opacity:0" cx="712.293" cy="355.842" r="2"/>
<circle clip-path="url(#clip062)" style="fill:#009af9; stroke:none; fill-opacity:0" cx="713.384" cy="199.864" r="2"/>
<circle clip-path="url(#clip062)" style="fill:#009af9; stroke:none; fill-opacity:0" cx="714.474" cy="339.98" r="2"/>
<circle clip-path="url(#clip062)" style="fill:#009af9; stroke:none; fill-opacity:0" cx="715.565" cy="86.1857" r="2"/>
<circle clip-path="url(#clip062)" style="fill:#009af9; stroke:none; fill-opacity:0" cx="716.655" cy="152.278" r="2"/>
<circle clip-path="url(#clip062)" style="fill:#009af9; stroke:none; fill-opacity:0" cx="717.745" cy="205.152" r="2"/>
<circle clip-path="url(#clip062)" style="fill:#009af9; stroke:none; fill-opacity:0" cx="718.836" cy="115.266" r="2"/>
<circle clip-path="url(#clip062)" style="fill:#009af9; stroke:none; fill-opacity:0" cx="719.926" cy="194.577" r="2"/>
<circle clip-path="url(#clip062)" style="fill:#009af9; stroke:none; fill-opacity:0" cx="721.016" cy="207.795" r="2"/>
<circle clip-path="url(#clip062)" style="fill:#009af9; stroke:none; fill-opacity:0" cx="722.107" cy="400.785" r="2"/>
<circle clip-path="url(#clip062)" style="fill:#009af9; stroke:none; fill-opacity:0" cx="723.197" cy="361.13" r="2"/>
<circle clip-path="url(#clip062)" style="fill:#009af9; stroke:none; fill-opacity:0" cx="724.287" cy="527.682" r="2"/>
<circle clip-path="url(#clip062)" style="fill:#009af9; stroke:none; fill-opacity:0" cx="725.378" cy="543.544" r="2"/>
<circle clip-path="url(#clip062)" style="fill:#009af9; stroke:none; fill-opacity:0" cx="726.468" cy="644.005" r="2"/>
<circle clip-path="url(#clip062)" style="fill:#009af9; stroke:none; fill-opacity:0" cx="727.559" cy="715.384" r="2"/>
<circle clip-path="url(#clip062)" style="fill:#009af9; stroke:none; fill-opacity:0" cx="728.649" cy="797.339" r="2"/>
<circle clip-path="url(#clip062)" style="fill:#009af9; stroke:none; fill-opacity:0" cx="729.739" cy="932.167" r="2"/>
<circle clip-path="url(#clip062)" style="fill:#009af9; stroke:none; fill-opacity:0" cx="730.83" cy="924.236" r="2"/>
<circle clip-path="url(#clip062)" style="fill:#009af9; stroke:none; fill-opacity:0" cx="731.92" cy="1056.42" r="2"/>
<circle clip-path="url(#clip062)" style="fill:#009af9; stroke:none; fill-opacity:0" cx="733.01" cy="1080.21" r="2"/>
<circle clip-path="url(#clip062)" style="fill:#009af9; stroke:none; fill-opacity:0" cx="734.101" cy="1114.58" r="2"/>
<circle clip-path="url(#clip062)" style="fill:#009af9; stroke:none; fill-opacity:0" cx="735.191" cy="1225.62" r="2"/>
<circle clip-path="url(#clip062)" style="fill:#009af9; stroke:none; fill-opacity:0" cx="736.282" cy="1193.89" r="2"/>
<circle clip-path="url(#clip062)" style="fill:#009af9; stroke:none; fill-opacity:0" cx="737.372" cy="1233.55" r="2"/>
<circle clip-path="url(#clip062)" style="fill:#009af9; stroke:none; fill-opacity:0" cx="738.462" cy="1299.64" r="2"/>
<circle clip-path="url(#clip062)" style="fill:#009af9; stroke:none; fill-opacity:0" cx="739.553" cy="1310.21" r="2"/>
<circle clip-path="url(#clip062)" style="fill:#009af9; stroke:none; fill-opacity:0" cx="740.643" cy="1328.72" r="2"/>
<circle clip-path="url(#clip062)" style="fill:#009af9; stroke:none; fill-opacity:0" cx="741.733" cy="1341.94" r="2"/>
<circle clip-path="url(#clip062)" style="fill:#009af9; stroke:none; fill-opacity:0" cx="742.824" cy="1344.58" r="2"/>
<circle clip-path="url(#clip062)" style="fill:#009af9; stroke:none; fill-opacity:0" cx="743.914" cy="1344.58" r="2"/>
<circle clip-path="url(#clip062)" style="fill:#009af9; stroke:none; fill-opacity:0" cx="745.005" cy="1368.38" r="2"/>
<circle clip-path="url(#clip062)" style="fill:#009af9; stroke:none; fill-opacity:0" cx="746.095" cy="1378.95" r="2"/>
<circle clip-path="url(#clip062)" style="fill:#009af9; stroke:none; fill-opacity:0" cx="747.185" cy="1376.31" r="2"/>
<circle clip-path="url(#clip062)" style="fill:#009af9; stroke:none; fill-opacity:0" cx="748.276" cy="1381.59" r="2"/>
<circle clip-path="url(#clip062)" style="fill:#009af9; stroke:none; fill-opacity:0" cx="749.366" cy="1381.59" r="2"/>
<circle clip-path="url(#clip062)" style="fill:#009af9; stroke:none; fill-opacity:0" cx="750.456" cy="1381.59" r="2"/>
</svg>
