<?xml version="1.0" encoding="utf-8"?>
<svg xmlns="http://www.w3.org/2000/svg" xmlns:xlink="http://www.w3.org/1999/xlink" width="600" height="400" viewBox="0 0 2400 1600">
<defs>
  <clipPath id="clip740">
    <rect x="0" y="0" width="2400" height="1600"/>
  </clipPath>
</defs>
<path clip-path="url(#clip740)" d="
M0 1600 L2400 1600 L2400 0 L0 0  Z
  " fill="#ffffff" fill-rule="evenodd" fill-opacity="1"/>
<defs>
  <clipPath id="clip741">
    <rect x="480" y="0" width="1681" height="1600"/>
  </clipPath>
</defs>
<path clip-path="url(#clip740)" d="
M224.098 1486.45 L2352.76 1486.45 L2352.76 47.2441 L224.098 47.2441  Z
  " fill="#ffffff" fill-rule="evenodd" fill-opacity="1"/>
<defs>
  <clipPath id="clip742">
    <rect x="224" y="47" width="2130" height="1440"/>
  </clipPath>
</defs>
<polyline clip-path="url(#clip742)" style="stroke:#000000; stroke-linecap:round; stroke-linejoin:round; stroke-width:2; stroke-opacity:0.1; fill:none" points="
  474.157,1486.45 474.157,47.2441 
  "/>
<polyline clip-path="url(#clip742)" style="stroke:#000000; stroke-linecap:round; stroke-linejoin:round; stroke-width:2; stroke-opacity:0.1; fill:none" points="
  951.802,1486.45 951.802,47.2441 
  "/>
<polyline clip-path="url(#clip742)" style="stroke:#000000; stroke-linecap:round; stroke-linejoin:round; stroke-width:2; stroke-opacity:0.1; fill:none" points="
  1429.45,1486.45 1429.45,47.2441 
  "/>
<polyline clip-path="url(#clip742)" style="stroke:#000000; stroke-linecap:round; stroke-linejoin:round; stroke-width:2; stroke-opacity:0.1; fill:none" points="
  1907.09,1486.45 1907.09,47.2441 
  "/>
<polyline clip-path="url(#clip740)" style="stroke:#000000; stroke-linecap:round; stroke-linejoin:round; stroke-width:4; stroke-opacity:1; fill:none" points="
  224.098,1486.45 2352.76,1486.45 
  "/>
<polyline clip-path="url(#clip740)" style="stroke:#000000; stroke-linecap:round; stroke-linejoin:round; stroke-width:4; stroke-opacity:1; fill:none" points="
  474.157,1486.45 474.157,1467.55 
  "/>
<polyline clip-path="url(#clip740)" style="stroke:#000000; stroke-linecap:round; stroke-linejoin:round; stroke-width:4; stroke-opacity:1; fill:none" points="
  951.802,1486.45 951.802,1467.55 
  "/>
<polyline clip-path="url(#clip740)" style="stroke:#000000; stroke-linecap:round; stroke-linejoin:round; stroke-width:4; stroke-opacity:1; fill:none" points="
  1429.45,1486.45 1429.45,1467.55 
  "/>
<polyline clip-path="url(#clip740)" style="stroke:#000000; stroke-linecap:round; stroke-linejoin:round; stroke-width:4; stroke-opacity:1; fill:none" points="
  1907.09,1486.45 1907.09,1467.55 
  "/>
<path clip-path="url(#clip740)" d="M406.403 1532.02 L436.078 1532.02 L436.078 1535.95 L406.403 1535.95 L406.403 1532.02 Z" fill="#000000" fill-rule="evenodd" fill-opacity="1" /><path clip-path="url(#clip740)" d="M456.171 1517.37 Q452.56 1517.37 450.731 1520.93 Q448.926 1524.47 448.926 1531.6 Q448.926 1538.71 450.731 1542.27 Q452.56 1545.82 456.171 1545.82 Q459.805 1545.82 461.611 1542.27 Q463.439 1538.71 463.439 1531.6 Q463.439 1524.47 461.611 1520.93 Q459.805 1517.37 456.171 1517.37 M456.171 1513.66 Q461.981 1513.66 465.037 1518.27 Q468.115 1522.85 468.115 1531.6 Q468.115 1540.33 465.037 1544.94 Q461.981 1549.52 456.171 1549.52 Q450.361 1549.52 447.282 1544.94 Q444.227 1540.33 444.227 1531.6 Q444.227 1522.85 447.282 1518.27 Q450.361 1513.66 456.171 1513.66 Z" fill="#000000" fill-rule="evenodd" fill-opacity="1" /><path clip-path="url(#clip740)" d="M476.333 1542.97 L481.217 1542.97 L481.217 1548.85 L476.333 1548.85 L476.333 1542.97 Z" fill="#000000" fill-rule="evenodd" fill-opacity="1" /><path clip-path="url(#clip740)" d="M492.212 1544.91 L499.851 1544.91 L499.851 1518.55 L491.541 1520.21 L491.541 1515.95 L499.805 1514.29 L504.481 1514.29 L504.481 1544.91 L512.12 1544.91 L512.12 1548.85 L492.212 1548.85 L492.212 1544.91 Z" fill="#000000" fill-rule="evenodd" fill-opacity="1" /><path clip-path="url(#clip740)" d="M525.592 1544.91 L541.911 1544.91 L541.911 1548.85 L519.967 1548.85 L519.967 1544.91 Q522.629 1542.16 527.212 1537.53 Q531.819 1532.88 532.999 1531.53 Q535.245 1529.01 536.124 1527.27 Q537.027 1525.51 537.027 1523.82 Q537.027 1521.07 535.083 1519.33 Q533.161 1517.6 530.059 1517.6 Q527.86 1517.6 525.407 1518.36 Q522.976 1519.13 520.198 1520.68 L520.198 1515.95 Q523.022 1514.82 525.476 1514.24 Q527.93 1513.66 529.967 1513.66 Q535.337 1513.66 538.532 1516.35 Q541.726 1519.03 541.726 1523.52 Q541.726 1525.65 540.916 1527.57 Q540.129 1529.47 538.022 1532.07 Q537.444 1532.74 534.342 1535.95 Q531.24 1539.15 525.592 1544.91 Z" fill="#000000" fill-rule="evenodd" fill-opacity="1" /><path clip-path="url(#clip740)" d="M883.249 1532.02 L912.925 1532.02 L912.925 1535.95 L883.249 1535.95 L883.249 1532.02 Z" fill="#000000" fill-rule="evenodd" fill-opacity="1" /><path clip-path="url(#clip740)" d="M933.017 1517.37 Q929.406 1517.37 927.577 1520.93 Q925.772 1524.47 925.772 1531.6 Q925.772 1538.71 927.577 1542.27 Q929.406 1545.82 933.017 1545.82 Q936.651 1545.82 938.457 1542.27 Q940.286 1538.71 940.286 1531.6 Q940.286 1524.47 938.457 1520.93 Q936.651 1517.37 933.017 1517.37 M933.017 1513.66 Q938.827 1513.66 941.883 1518.27 Q944.962 1522.85 944.962 1531.6 Q944.962 1540.33 941.883 1544.94 Q938.827 1549.52 933.017 1549.52 Q927.207 1549.52 924.128 1544.94 Q921.073 1540.33 921.073 1531.6 Q921.073 1522.85 924.128 1518.27 Q927.207 1513.66 933.017 1513.66 Z" fill="#000000" fill-rule="evenodd" fill-opacity="1" /><path clip-path="url(#clip740)" d="M953.179 1542.97 L958.063 1542.97 L958.063 1548.85 L953.179 1548.85 L953.179 1542.97 Z" fill="#000000" fill-rule="evenodd" fill-opacity="1" /><path clip-path="url(#clip740)" d="M969.059 1544.91 L976.698 1544.91 L976.698 1518.55 L968.387 1520.21 L968.387 1515.95 L976.651 1514.29 L981.327 1514.29 L981.327 1544.91 L988.966 1544.91 L988.966 1548.85 L969.059 1548.85 L969.059 1544.91 Z" fill="#000000" fill-rule="evenodd" fill-opacity="1" /><path clip-path="url(#clip740)" d="M1008.41 1517.37 Q1004.8 1517.37 1002.97 1520.93 Q1001.17 1524.47 1001.17 1531.6 Q1001.17 1538.71 1002.97 1542.27 Q1004.8 1545.82 1008.41 1545.82 Q1012.04 1545.82 1013.85 1542.27 Q1015.68 1538.71 1015.68 1531.6 Q1015.68 1524.47 1013.85 1520.93 Q1012.04 1517.37 1008.41 1517.37 M1008.41 1513.66 Q1014.22 1513.66 1017.28 1518.27 Q1020.35 1522.85 1020.35 1531.6 Q1020.35 1540.33 1017.28 1544.94 Q1014.22 1549.52 1008.41 1549.52 Q1002.6 1549.52 999.522 1544.94 Q996.466 1540.33 996.466 1531.6 Q996.466 1522.85 999.522 1518.27 Q1002.6 1513.66 1008.41 1513.66 Z" fill="#000000" fill-rule="evenodd" fill-opacity="1" /><path clip-path="url(#clip740)" d="M1360.94 1532.02 L1390.62 1532.02 L1390.62 1535.95 L1360.94 1535.95 L1360.94 1532.02 Z" fill="#000000" fill-rule="evenodd" fill-opacity="1" /><path clip-path="url(#clip740)" d="M1410.71 1517.37 Q1407.1 1517.37 1405.27 1520.93 Q1403.46 1524.47 1403.46 1531.6 Q1403.46 1538.71 1405.27 1542.27 Q1407.1 1545.82 1410.71 1545.82 Q1414.34 1545.82 1416.15 1542.27 Q1417.98 1538.71 1417.98 1531.6 Q1417.98 1524.47 1416.15 1520.93 Q1414.34 1517.37 1410.71 1517.37 M1410.71 1513.66 Q1416.52 1513.66 1419.57 1518.27 Q1422.65 1522.85 1422.65 1531.6 Q1422.65 1540.33 1419.57 1544.94 Q1416.52 1549.52 1410.71 1549.52 Q1404.9 1549.52 1401.82 1544.94 Q1398.76 1540.33 1398.76 1531.6 Q1398.76 1522.85 1401.82 1518.27 Q1404.9 1513.66 1410.71 1513.66 Z" fill="#000000" fill-rule="evenodd" fill-opacity="1" /><path clip-path="url(#clip740)" d="M1430.87 1542.97 L1435.75 1542.97 L1435.75 1548.85 L1430.87 1548.85 L1430.87 1542.97 Z" fill="#000000" fill-rule="evenodd" fill-opacity="1" /><path clip-path="url(#clip740)" d="M1455.94 1517.37 Q1452.33 1517.37 1450.5 1520.93 Q1448.69 1524.47 1448.69 1531.6 Q1448.69 1538.71 1450.5 1542.27 Q1452.33 1545.82 1455.94 1545.82 Q1459.57 1545.82 1461.38 1542.27 Q1463.21 1538.71 1463.21 1531.6 Q1463.21 1524.47 1461.38 1520.93 Q1459.57 1517.37 1455.94 1517.37 M1455.94 1513.66 Q1461.75 1513.66 1464.81 1518.27 Q1467.88 1522.85 1467.88 1531.6 Q1467.88 1540.33 1464.81 1544.94 Q1461.75 1549.52 1455.94 1549.52 Q1450.13 1549.52 1447.05 1544.94 Q1444 1540.33 1444 1531.6 Q1444 1522.85 1447.05 1518.27 Q1450.13 1513.66 1455.94 1513.66 Z" fill="#000000" fill-rule="evenodd" fill-opacity="1" /><path clip-path="url(#clip740)" d="M1486.1 1532.44 Q1482.77 1532.44 1480.85 1534.22 Q1478.95 1536 1478.95 1539.13 Q1478.95 1542.25 1480.85 1544.03 Q1482.77 1545.82 1486.1 1545.82 Q1489.43 1545.82 1491.36 1544.03 Q1493.28 1542.23 1493.28 1539.13 Q1493.28 1536 1491.36 1534.22 Q1489.46 1532.44 1486.1 1532.44 M1481.43 1530.45 Q1478.42 1529.7 1476.73 1527.64 Q1475.06 1525.58 1475.06 1522.62 Q1475.06 1518.48 1478 1516.07 Q1480.96 1513.66 1486.1 1513.66 Q1491.26 1513.66 1494.2 1516.07 Q1497.14 1518.48 1497.14 1522.62 Q1497.14 1525.58 1495.45 1527.64 Q1493.79 1529.7 1490.8 1530.45 Q1494.18 1531.23 1496.06 1533.52 Q1497.95 1535.82 1497.95 1539.13 Q1497.95 1544.15 1494.87 1546.83 Q1491.82 1549.52 1486.1 1549.52 Q1480.38 1549.52 1477.31 1546.83 Q1474.25 1544.15 1474.25 1539.13 Q1474.25 1535.82 1476.15 1533.52 Q1478.05 1531.23 1481.43 1530.45 M1479.71 1523.06 Q1479.71 1525.75 1481.38 1527.25 Q1483.07 1528.76 1486.1 1528.76 Q1489.11 1528.76 1490.8 1527.25 Q1492.51 1525.75 1492.51 1523.06 Q1492.51 1520.38 1490.8 1518.87 Q1489.11 1517.37 1486.1 1517.37 Q1483.07 1517.37 1481.38 1518.87 Q1479.71 1520.38 1479.71 1523.06 Z" fill="#000000" fill-rule="evenodd" fill-opacity="1" /><path clip-path="url(#clip740)" d="M1838.46 1532.02 L1868.13 1532.02 L1868.13 1535.95 L1838.46 1535.95 L1838.46 1532.02 Z" fill="#000000" fill-rule="evenodd" fill-opacity="1" /><path clip-path="url(#clip740)" d="M1888.23 1517.37 Q1884.61 1517.37 1882.79 1520.93 Q1880.98 1524.47 1880.98 1531.6 Q1880.98 1538.71 1882.79 1542.27 Q1884.61 1545.82 1888.23 1545.82 Q1891.86 1545.82 1893.67 1542.27 Q1895.49 1538.71 1895.49 1531.6 Q1895.49 1524.47 1893.67 1520.93 Q1891.86 1517.37 1888.23 1517.37 M1888.23 1513.66 Q1894.04 1513.66 1897.09 1518.27 Q1900.17 1522.85 1900.17 1531.6 Q1900.17 1540.33 1897.09 1544.94 Q1894.04 1549.52 1888.23 1549.52 Q1882.42 1549.52 1879.34 1544.94 Q1876.28 1540.33 1876.28 1531.6 Q1876.28 1522.85 1879.34 1518.27 Q1882.42 1513.66 1888.23 1513.66 Z" fill="#000000" fill-rule="evenodd" fill-opacity="1" /><path clip-path="url(#clip740)" d="M1908.39 1542.97 L1913.27 1542.97 L1913.27 1548.85 L1908.39 1548.85 L1908.39 1542.97 Z" fill="#000000" fill-rule="evenodd" fill-opacity="1" /><path clip-path="url(#clip740)" d="M1933.46 1517.37 Q1929.85 1517.37 1928.02 1520.93 Q1926.21 1524.47 1926.21 1531.6 Q1926.21 1538.71 1928.02 1542.27 Q1929.85 1545.82 1933.46 1545.82 Q1937.09 1545.82 1938.9 1542.27 Q1940.73 1538.71 1940.73 1531.6 Q1940.73 1524.47 1938.9 1520.93 Q1937.09 1517.37 1933.46 1517.37 M1933.46 1513.66 Q1939.27 1513.66 1942.32 1518.27 Q1945.4 1522.85 1945.4 1531.6 Q1945.4 1540.33 1942.32 1544.94 Q1939.27 1549.52 1933.46 1549.52 Q1927.65 1549.52 1924.57 1544.94 Q1921.51 1540.33 1921.51 1531.6 Q1921.51 1522.85 1924.57 1518.27 Q1927.65 1513.66 1933.46 1513.66 Z" fill="#000000" fill-rule="evenodd" fill-opacity="1" /><path clip-path="url(#clip740)" d="M1964.2 1529.7 Q1961.05 1529.7 1959.2 1531.86 Q1957.37 1534.01 1957.37 1537.76 Q1957.37 1541.49 1959.2 1543.66 Q1961.05 1545.82 1964.2 1545.82 Q1967.35 1545.82 1969.17 1543.66 Q1971.03 1541.49 1971.03 1537.76 Q1971.03 1534.01 1969.17 1531.86 Q1967.35 1529.7 1964.2 1529.7 M1973.48 1515.05 L1973.48 1519.31 Q1971.72 1518.48 1969.92 1518.04 Q1968.13 1517.6 1966.37 1517.6 Q1961.74 1517.6 1959.29 1520.72 Q1956.86 1523.85 1956.51 1530.17 Q1957.88 1528.15 1959.94 1527.09 Q1962 1526 1964.48 1526 Q1969.68 1526 1972.69 1529.17 Q1975.73 1532.32 1975.73 1537.76 Q1975.73 1543.08 1972.58 1546.3 Q1969.43 1549.52 1964.2 1549.52 Q1958.2 1549.52 1955.03 1544.94 Q1951.86 1540.33 1951.86 1531.6 Q1951.86 1523.41 1955.75 1518.55 Q1959.64 1513.66 1966.19 1513.66 Q1967.95 1513.66 1969.73 1514.01 Q1971.54 1514.36 1973.48 1515.05 Z" fill="#000000" fill-rule="evenodd" fill-opacity="1" /><polyline clip-path="url(#clip742)" style="stroke:#000000; stroke-linecap:round; stroke-linejoin:round; stroke-width:2; stroke-opacity:0.1; fill:none" points="
  224.098,1373.58 2352.76,1373.58 
  "/>
<polyline clip-path="url(#clip742)" style="stroke:#000000; stroke-linecap:round; stroke-linejoin:round; stroke-width:2; stroke-opacity:0.1; fill:none" points="
  224.098,1152.95 2352.76,1152.95 
  "/>
<polyline clip-path="url(#clip742)" style="stroke:#000000; stroke-linecap:round; stroke-linejoin:round; stroke-width:2; stroke-opacity:0.1; fill:none" points="
  224.098,932.324 2352.76,932.324 
  "/>
<polyline clip-path="url(#clip742)" style="stroke:#000000; stroke-linecap:round; stroke-linejoin:round; stroke-width:2; stroke-opacity:0.1; fill:none" points="
  224.098,711.695 2352.76,711.695 
  "/>
<polyline clip-path="url(#clip742)" style="stroke:#000000; stroke-linecap:round; stroke-linejoin:round; stroke-width:2; stroke-opacity:0.1; fill:none" points="
  224.098,491.066 2352.76,491.066 
  "/>
<polyline clip-path="url(#clip742)" style="stroke:#000000; stroke-linecap:round; stroke-linejoin:round; stroke-width:2; stroke-opacity:0.1; fill:none" points="
  224.098,270.437 2352.76,270.437 
  "/>
<polyline clip-path="url(#clip742)" style="stroke:#000000; stroke-linecap:round; stroke-linejoin:round; stroke-width:2; stroke-opacity:0.1; fill:none" points="
  224.098,49.808 2352.76,49.808 
  "/>
<polyline clip-path="url(#clip740)" style="stroke:#000000; stroke-linecap:round; stroke-linejoin:round; stroke-width:4; stroke-opacity:1; fill:none" points="
  224.098,1486.45 224.098,47.2441 
  "/>
<polyline clip-path="url(#clip740)" style="stroke:#000000; stroke-linecap:round; stroke-linejoin:round; stroke-width:4; stroke-opacity:1; fill:none" points="
  224.098,1373.58 242.996,1373.58 
  "/>
<polyline clip-path="url(#clip740)" style="stroke:#000000; stroke-linecap:round; stroke-linejoin:round; stroke-width:4; stroke-opacity:1; fill:none" points="
  224.098,1152.95 242.996,1152.95 
  "/>
<polyline clip-path="url(#clip740)" style="stroke:#000000; stroke-linecap:round; stroke-linejoin:round; stroke-width:4; stroke-opacity:1; fill:none" points="
  224.098,932.324 242.996,932.324 
  "/>
<polyline clip-path="url(#clip740)" style="stroke:#000000; stroke-linecap:round; stroke-linejoin:round; stroke-width:4; stroke-opacity:1; fill:none" points="
  224.098,711.695 242.996,711.695 
  "/>
<polyline clip-path="url(#clip740)" style="stroke:#000000; stroke-linecap:round; stroke-linejoin:round; stroke-width:4; stroke-opacity:1; fill:none" points="
  224.098,491.066 242.996,491.066 
  "/>
<polyline clip-path="url(#clip740)" style="stroke:#000000; stroke-linecap:round; stroke-linejoin:round; stroke-width:4; stroke-opacity:1; fill:none" points="
  224.098,270.437 242.996,270.437 
  "/>
<polyline clip-path="url(#clip740)" style="stroke:#000000; stroke-linecap:round; stroke-linejoin:round; stroke-width:4; stroke-opacity:1; fill:none" points="
  224.098,49.808 242.996,49.808 
  "/>
<path clip-path="url(#clip740)" d="M51.9875 1374.03 L81.6633 1374.03 L81.6633 1377.97 L51.9875 1377.97 L51.9875 1374.03 Z" fill="#000000" fill-rule="evenodd" fill-opacity="1" /><path clip-path="url(#clip740)" d="M101.756 1359.38 Q98.1447 1359.38 96.316 1362.94 Q94.5104 1366.49 94.5104 1373.62 Q94.5104 1380.72 96.316 1384.29 Q98.1447 1387.83 101.756 1387.83 Q105.39 1387.83 107.196 1384.29 Q109.024 1380.72 109.024 1373.62 Q109.024 1366.49 107.196 1362.94 Q105.39 1359.38 101.756 1359.38 M101.756 1355.68 Q107.566 1355.68 110.621 1360.28 Q113.7 1364.87 113.7 1373.62 Q113.7 1382.34 110.621 1386.95 Q107.566 1391.53 101.756 1391.53 Q95.9456 1391.53 92.8669 1386.95 Q89.8114 1382.34 89.8114 1373.62 Q89.8114 1364.87 92.8669 1360.28 Q95.9456 1355.68 101.756 1355.68 Z" fill="#000000" fill-rule="evenodd" fill-opacity="1" /><path clip-path="url(#clip740)" d="M121.918 1384.98 L126.802 1384.98 L126.802 1390.86 L121.918 1390.86 L121.918 1384.98 Z" fill="#000000" fill-rule="evenodd" fill-opacity="1" /><path clip-path="url(#clip740)" d="M137.797 1386.93 L145.436 1386.93 L145.436 1360.56 L137.126 1362.23 L137.126 1357.97 L145.39 1356.3 L150.066 1356.3 L150.066 1386.93 L157.705 1386.93 L157.705 1390.86 L137.797 1390.86 L137.797 1386.93 Z" fill="#000000" fill-rule="evenodd" fill-opacity="1" /><path clip-path="url(#clip740)" d="M167.195 1356.3 L185.552 1356.3 L185.552 1360.24 L171.478 1360.24 L171.478 1368.71 Q172.496 1368.36 173.515 1368.2 Q174.533 1368.01 175.552 1368.01 Q181.339 1368.01 184.718 1371.19 Q188.098 1374.36 188.098 1379.77 Q188.098 1385.35 184.626 1388.45 Q181.153 1391.53 174.834 1391.53 Q172.658 1391.53 170.39 1391.16 Q168.144 1390.79 165.737 1390.05 L165.737 1385.35 Q167.82 1386.49 170.042 1387.04 Q172.265 1387.6 174.741 1387.6 Q178.746 1387.6 181.084 1385.49 Q183.422 1383.38 183.422 1379.77 Q183.422 1376.16 181.084 1374.06 Q178.746 1371.95 174.741 1371.95 Q172.866 1371.95 170.991 1372.37 Q169.14 1372.78 167.195 1373.66 L167.195 1356.3 Z" fill="#000000" fill-rule="evenodd" fill-opacity="1" /><path clip-path="url(#clip740)" d="M50.9921 1153.4 L80.6679 1153.4 L80.6679 1157.34 L50.9921 1157.34 L50.9921 1153.4 Z" fill="#000000" fill-rule="evenodd" fill-opacity="1" /><path clip-path="url(#clip740)" d="M100.76 1138.75 Q97.1493 1138.75 95.3206 1142.32 Q93.515 1145.86 93.515 1152.99 Q93.515 1160.09 95.3206 1163.66 Q97.1493 1167.2 100.76 1167.2 Q104.395 1167.2 106.2 1163.66 Q108.029 1160.09 108.029 1152.99 Q108.029 1145.86 106.2 1142.32 Q104.395 1138.75 100.76 1138.75 M100.76 1135.05 Q106.571 1135.05 109.626 1139.65 Q112.705 1144.24 112.705 1152.99 Q112.705 1161.71 109.626 1166.32 Q106.571 1170.9 100.76 1170.9 Q94.9502 1170.9 91.8715 1166.32 Q88.816 1161.71 88.816 1152.99 Q88.816 1144.24 91.8715 1139.65 Q94.9502 1135.05 100.76 1135.05 Z" fill="#000000" fill-rule="evenodd" fill-opacity="1" /><path clip-path="url(#clip740)" d="M120.922 1164.35 L125.807 1164.35 L125.807 1170.23 L120.922 1170.23 L120.922 1164.35 Z" fill="#000000" fill-rule="evenodd" fill-opacity="1" /><path clip-path="url(#clip740)" d="M136.802 1166.3 L144.441 1166.3 L144.441 1139.93 L136.131 1141.6 L136.131 1137.34 L144.394 1135.67 L149.07 1135.67 L149.07 1166.3 L156.709 1166.3 L156.709 1170.23 L136.802 1170.23 L136.802 1166.3 Z" fill="#000000" fill-rule="evenodd" fill-opacity="1" /><path clip-path="url(#clip740)" d="M176.153 1138.75 Q172.542 1138.75 170.714 1142.32 Q168.908 1145.86 168.908 1152.99 Q168.908 1160.09 170.714 1163.66 Q172.542 1167.2 176.153 1167.2 Q179.788 1167.2 181.593 1163.66 Q183.422 1160.09 183.422 1152.99 Q183.422 1145.86 181.593 1142.32 Q179.788 1138.75 176.153 1138.75 M176.153 1135.05 Q181.964 1135.05 185.019 1139.65 Q188.098 1144.24 188.098 1152.99 Q188.098 1161.71 185.019 1166.32 Q181.964 1170.9 176.153 1170.9 Q170.343 1170.9 167.265 1166.32 Q164.209 1161.71 164.209 1152.99 Q164.209 1144.24 167.265 1139.65 Q170.343 1135.05 176.153 1135.05 Z" fill="#000000" fill-rule="evenodd" fill-opacity="1" /><path clip-path="url(#clip740)" d="M51.9875 932.775 L81.6633 932.775 L81.6633 936.71 L51.9875 936.71 L51.9875 932.775 Z" fill="#000000" fill-rule="evenodd" fill-opacity="1" /><path clip-path="url(#clip740)" d="M101.756 918.122 Q98.1447 918.122 96.316 921.687 Q94.5104 925.229 94.5104 932.358 Q94.5104 939.465 96.316 943.03 Q98.1447 946.571 101.756 946.571 Q105.39 946.571 107.196 943.03 Q109.024 939.465 109.024 932.358 Q109.024 925.229 107.196 921.687 Q105.39 918.122 101.756 918.122 M101.756 914.419 Q107.566 914.419 110.621 919.025 Q113.7 923.608 113.7 932.358 Q113.7 941.085 110.621 945.692 Q107.566 950.275 101.756 950.275 Q95.9456 950.275 92.8669 945.692 Q89.8114 941.085 89.8114 932.358 Q89.8114 923.608 92.8669 919.025 Q95.9456 914.419 101.756 914.419 Z" fill="#000000" fill-rule="evenodd" fill-opacity="1" /><path clip-path="url(#clip740)" d="M121.918 943.724 L126.802 943.724 L126.802 949.604 L121.918 949.604 L121.918 943.724 Z" fill="#000000" fill-rule="evenodd" fill-opacity="1" /><path clip-path="url(#clip740)" d="M146.987 918.122 Q143.376 918.122 141.547 921.687 Q139.742 925.229 139.742 932.358 Q139.742 939.465 141.547 943.03 Q143.376 946.571 146.987 946.571 Q150.621 946.571 152.427 943.03 Q154.255 939.465 154.255 932.358 Q154.255 925.229 152.427 921.687 Q150.621 918.122 146.987 918.122 M146.987 914.419 Q152.797 914.419 155.853 919.025 Q158.931 923.608 158.931 932.358 Q158.931 941.085 155.853 945.692 Q152.797 950.275 146.987 950.275 Q141.177 950.275 138.098 945.692 Q135.043 941.085 135.043 932.358 Q135.043 923.608 138.098 919.025 Q141.177 914.419 146.987 914.419 Z" fill="#000000" fill-rule="evenodd" fill-opacity="1" /><path clip-path="url(#clip740)" d="M167.195 915.044 L185.552 915.044 L185.552 918.979 L171.478 918.979 L171.478 927.451 Q172.496 927.104 173.515 926.942 Q174.533 926.756 175.552 926.756 Q181.339 926.756 184.718 929.928 Q188.098 933.099 188.098 938.516 Q188.098 944.094 184.626 947.196 Q181.153 950.275 174.834 950.275 Q172.658 950.275 170.39 949.904 Q168.144 949.534 165.737 948.793 L165.737 944.094 Q167.82 945.229 170.042 945.784 Q172.265 946.34 174.741 946.34 Q178.746 946.34 181.084 944.233 Q183.422 942.127 183.422 938.516 Q183.422 934.905 181.084 932.798 Q178.746 930.692 174.741 930.692 Q172.866 930.692 170.991 931.108 Q169.14 931.525 167.195 932.405 L167.195 915.044 Z" fill="#000000" fill-rule="evenodd" fill-opacity="1" /><path clip-path="url(#clip740)" d="M100.76 697.493 Q97.1493 697.493 95.3206 701.058 Q93.515 704.6 93.515 711.729 Q93.515 718.836 95.3206 722.401 Q97.1493 725.942 100.76 725.942 Q104.395 725.942 106.2 722.401 Q108.029 718.836 108.029 711.729 Q108.029 704.6 106.2 701.058 Q104.395 697.493 100.76 697.493 M100.76 693.79 Q106.571 693.79 109.626 698.396 Q112.705 702.979 112.705 711.729 Q112.705 720.456 109.626 725.063 Q106.571 729.646 100.76 729.646 Q94.9502 729.646 91.8715 725.063 Q88.816 720.456 88.816 711.729 Q88.816 702.979 91.8715 698.396 Q94.9502 693.79 100.76 693.79 Z" fill="#000000" fill-rule="evenodd" fill-opacity="1" /><path clip-path="url(#clip740)" d="M120.922 723.095 L125.807 723.095 L125.807 728.975 L120.922 728.975 L120.922 723.095 Z" fill="#000000" fill-rule="evenodd" fill-opacity="1" /><path clip-path="url(#clip740)" d="M145.992 697.493 Q142.381 697.493 140.552 701.058 Q138.746 704.6 138.746 711.729 Q138.746 718.836 140.552 722.401 Q142.381 725.942 145.992 725.942 Q149.626 725.942 151.431 722.401 Q153.26 718.836 153.26 711.729 Q153.26 704.6 151.431 701.058 Q149.626 697.493 145.992 697.493 M145.992 693.79 Q151.802 693.79 154.857 698.396 Q157.936 702.979 157.936 711.729 Q157.936 720.456 154.857 725.063 Q151.802 729.646 145.992 729.646 Q140.181 729.646 137.103 725.063 Q134.047 720.456 134.047 711.729 Q134.047 702.979 137.103 698.396 Q140.181 693.79 145.992 693.79 Z" fill="#000000" fill-rule="evenodd" fill-opacity="1" /><path clip-path="url(#clip740)" d="M176.153 697.493 Q172.542 697.493 170.714 701.058 Q168.908 704.6 168.908 711.729 Q168.908 718.836 170.714 722.401 Q172.542 725.942 176.153 725.942 Q179.788 725.942 181.593 722.401 Q183.422 718.836 183.422 711.729 Q183.422 704.6 181.593 701.058 Q179.788 697.493 176.153 697.493 M176.153 693.79 Q181.964 693.79 185.019 698.396 Q188.098 702.979 188.098 711.729 Q188.098 720.456 185.019 725.063 Q181.964 729.646 176.153 729.646 Q170.343 729.646 167.265 725.063 Q164.209 720.456 164.209 711.729 Q164.209 702.979 167.265 698.396 Q170.343 693.79 176.153 693.79 Z" fill="#000000" fill-rule="evenodd" fill-opacity="1" /><path clip-path="url(#clip740)" d="M101.756 476.864 Q98.1447 476.864 96.316 480.429 Q94.5104 483.971 94.5104 491.1 Q94.5104 498.207 96.316 501.772 Q98.1447 505.313 101.756 505.313 Q105.39 505.313 107.196 501.772 Q109.024 498.207 109.024 491.1 Q109.024 483.971 107.196 480.429 Q105.39 476.864 101.756 476.864 M101.756 473.161 Q107.566 473.161 110.621 477.767 Q113.7 482.351 113.7 491.1 Q113.7 499.827 110.621 504.434 Q107.566 509.017 101.756 509.017 Q95.9456 509.017 92.8669 504.434 Q89.8114 499.827 89.8114 491.1 Q89.8114 482.351 92.8669 477.767 Q95.9456 473.161 101.756 473.161 Z" fill="#000000" fill-rule="evenodd" fill-opacity="1" /><path clip-path="url(#clip740)" d="M121.918 502.466 L126.802 502.466 L126.802 508.346 L121.918 508.346 L121.918 502.466 Z" fill="#000000" fill-rule="evenodd" fill-opacity="1" /><path clip-path="url(#clip740)" d="M146.987 476.864 Q143.376 476.864 141.547 480.429 Q139.742 483.971 139.742 491.1 Q139.742 498.207 141.547 501.772 Q143.376 505.313 146.987 505.313 Q150.621 505.313 152.427 501.772 Q154.255 498.207 154.255 491.1 Q154.255 483.971 152.427 480.429 Q150.621 476.864 146.987 476.864 M146.987 473.161 Q152.797 473.161 155.853 477.767 Q158.931 482.351 158.931 491.1 Q158.931 499.827 155.853 504.434 Q152.797 509.017 146.987 509.017 Q141.177 509.017 138.098 504.434 Q135.043 499.827 135.043 491.1 Q135.043 482.351 138.098 477.767 Q141.177 473.161 146.987 473.161 Z" fill="#000000" fill-rule="evenodd" fill-opacity="1" /><path clip-path="url(#clip740)" d="M167.195 473.786 L185.552 473.786 L185.552 477.721 L171.478 477.721 L171.478 486.193 Q172.496 485.846 173.515 485.684 Q174.533 485.499 175.552 485.499 Q181.339 485.499 184.718 488.67 Q188.098 491.841 188.098 497.258 Q188.098 502.837 184.626 505.938 Q181.153 509.017 174.834 509.017 Q172.658 509.017 170.39 508.647 Q168.144 508.276 165.737 507.536 L165.737 502.837 Q167.82 503.971 170.042 504.526 Q172.265 505.082 174.741 505.082 Q178.746 505.082 181.084 502.975 Q183.422 500.869 183.422 497.258 Q183.422 493.647 181.084 491.54 Q178.746 489.434 174.741 489.434 Q172.866 489.434 170.991 489.85 Q169.14 490.267 167.195 491.147 L167.195 473.786 Z" fill="#000000" fill-rule="evenodd" fill-opacity="1" /><path clip-path="url(#clip740)" d="M100.76 256.236 Q97.1493 256.236 95.3206 259.8 Q93.515 263.342 93.515 270.472 Q93.515 277.578 95.3206 281.143 Q97.1493 284.684 100.76 284.684 Q104.395 284.684 106.2 281.143 Q108.029 277.578 108.029 270.472 Q108.029 263.342 106.2 259.8 Q104.395 256.236 100.76 256.236 M100.76 252.532 Q106.571 252.532 109.626 257.138 Q112.705 261.722 112.705 270.472 Q112.705 279.198 109.626 283.805 Q106.571 288.388 100.76 288.388 Q94.9502 288.388 91.8715 283.805 Q88.816 279.198 88.816 270.472 Q88.816 261.722 91.8715 257.138 Q94.9502 252.532 100.76 252.532 Z" fill="#000000" fill-rule="evenodd" fill-opacity="1" /><path clip-path="url(#clip740)" d="M120.922 281.837 L125.807 281.837 L125.807 287.717 L120.922 287.717 L120.922 281.837 Z" fill="#000000" fill-rule="evenodd" fill-opacity="1" /><path clip-path="url(#clip740)" d="M136.802 283.782 L144.441 283.782 L144.441 257.416 L136.131 259.083 L136.131 254.824 L144.394 253.157 L149.07 253.157 L149.07 283.782 L156.709 283.782 L156.709 287.717 L136.802 287.717 L136.802 283.782 Z" fill="#000000" fill-rule="evenodd" fill-opacity="1" /><path clip-path="url(#clip740)" d="M176.153 256.236 Q172.542 256.236 170.714 259.8 Q168.908 263.342 168.908 270.472 Q168.908 277.578 170.714 281.143 Q172.542 284.684 176.153 284.684 Q179.788 284.684 181.593 281.143 Q183.422 277.578 183.422 270.472 Q183.422 263.342 181.593 259.8 Q179.788 256.236 176.153 256.236 M176.153 252.532 Q181.964 252.532 185.019 257.138 Q188.098 261.722 188.098 270.472 Q188.098 279.198 185.019 283.805 Q181.964 288.388 176.153 288.388 Q170.343 288.388 167.265 283.805 Q164.209 279.198 164.209 270.472 Q164.209 261.722 167.265 257.138 Q170.343 252.532 176.153 252.532 Z" fill="#000000" fill-rule="evenodd" fill-opacity="1" /><path clip-path="url(#clip740)" d="M101.756 35.6066 Q98.1447 35.6066 96.316 39.1714 Q94.5104 42.7131 94.5104 49.8427 Q94.5104 56.9491 96.316 60.5139 Q98.1447 64.0556 101.756 64.0556 Q105.39 64.0556 107.196 60.5139 Q109.024 56.9491 109.024 49.8427 Q109.024 42.7131 107.196 39.1714 Q105.39 35.6066 101.756 35.6066 M101.756 31.903 Q107.566 31.903 110.621 36.5094 Q113.7 41.0927 113.7 49.8427 Q113.7 58.5695 110.621 63.1759 Q107.566 67.7593 101.756 67.7593 Q95.9456 67.7593 92.8669 63.1759 Q89.8114 58.5695 89.8114 49.8427 Q89.8114 41.0927 92.8669 36.5094 Q95.9456 31.903 101.756 31.903 Z" fill="#000000" fill-rule="evenodd" fill-opacity="1" /><path clip-path="url(#clip740)" d="M121.918 61.2084 L126.802 61.2084 L126.802 67.088 L121.918 67.088 L121.918 61.2084 Z" fill="#000000" fill-rule="evenodd" fill-opacity="1" /><path clip-path="url(#clip740)" d="M137.797 63.1528 L145.436 63.1528 L145.436 36.7872 L137.126 38.4539 L137.126 34.1946 L145.39 32.528 L150.066 32.528 L150.066 63.1528 L157.705 63.1528 L157.705 67.088 L137.797 67.088 L137.797 63.1528 Z" fill="#000000" fill-rule="evenodd" fill-opacity="1" /><path clip-path="url(#clip740)" d="M167.195 32.528 L185.552 32.528 L185.552 36.4631 L171.478 36.4631 L171.478 44.9353 Q172.496 44.5881 173.515 44.426 Q174.533 44.2409 175.552 44.2409 Q181.339 44.2409 184.718 47.4121 Q188.098 50.5834 188.098 56.0001 Q188.098 61.5787 184.626 64.6806 Q181.153 67.7593 174.834 67.7593 Q172.658 67.7593 170.39 67.3889 Q168.144 67.0185 165.737 66.2778 L165.737 61.5787 Q167.82 62.713 170.042 63.2685 Q172.265 63.8241 174.741 63.8241 Q178.746 63.8241 181.084 61.7176 Q183.422 59.6111 183.422 56.0001 Q183.422 52.389 181.084 50.2825 Q178.746 48.176 174.741 48.176 Q172.866 48.176 170.991 48.5927 Q169.14 49.0094 167.195 49.889 L167.195 32.528 Z" fill="#000000" fill-rule="evenodd" fill-opacity="1" /><circle clip-path="url(#clip742)" cx="601.368" cy="223.344" r="14.4" fill="#008000" fill-rule="evenodd" fill-opacity="1" stroke="#000000" stroke-opacity="1" stroke-width="3.2"/>
<circle clip-path="url(#clip742)" cx="358.657" cy="87.9763" r="14.4" fill="#008000" fill-rule="evenodd" fill-opacity="1" stroke="#000000" stroke-opacity="1" stroke-width="3.2"/>
<circle clip-path="url(#clip742)" cx="601.368" cy="223.344" r="14.4" fill="#008000" fill-rule="evenodd" fill-opacity="1" stroke="#000000" stroke-opacity="1" stroke-width="3.2"/>
<circle clip-path="url(#clip742)" cx="500.089" cy="278.74" r="14.4" fill="#008000" fill-rule="evenodd" fill-opacity="1" stroke="#000000" stroke-opacity="1" stroke-width="3.2"/>
<circle clip-path="url(#clip742)" cx="358.657" cy="87.9763" r="14.4" fill="#008000" fill-rule="evenodd" fill-opacity="1" stroke="#000000" stroke-opacity="1" stroke-width="3.2"/>
<circle clip-path="url(#clip742)" cx="796.265" cy="222.036" r="14.4" fill="#008000" fill-rule="evenodd" fill-opacity="1" stroke="#000000" stroke-opacity="1" stroke-width="3.2"/>
<circle clip-path="url(#clip742)" cx="1277.21" cy="287.743" r="14.4" fill="#008000" fill-rule="evenodd" fill-opacity="1" stroke="#000000" stroke-opacity="1" stroke-width="3.2"/>
<circle clip-path="url(#clip742)" cx="493.934" cy="287.22" r="14.4" fill="#008000" fill-rule="evenodd" fill-opacity="1" stroke="#000000" stroke-opacity="1" stroke-width="3.2"/>
<circle clip-path="url(#clip742)" cx="358.657" cy="87.9763" r="14.4" fill="#008000" fill-rule="evenodd" fill-opacity="1" stroke="#000000" stroke-opacity="1" stroke-width="3.2"/>
<circle clip-path="url(#clip742)" cx="534.732" cy="627.554" r="14.4" fill="#008000" fill-rule="evenodd" fill-opacity="1" stroke="#000000" stroke-opacity="1" stroke-width="3.2"/>
<circle clip-path="url(#clip742)" cx="358.657" cy="87.9763" r="14.4" fill="#008000" fill-rule="evenodd" fill-opacity="1" stroke="#000000" stroke-opacity="1" stroke-width="3.2"/>
<circle clip-path="url(#clip742)" cx="708.119" cy="339.972" r="14.4" fill="#008000" fill-rule="evenodd" fill-opacity="1" stroke="#000000" stroke-opacity="1" stroke-width="3.2"/>
<circle clip-path="url(#clip742)" cx="358.657" cy="87.9763" r="14.4" fill="#008000" fill-rule="evenodd" fill-opacity="1" stroke="#000000" stroke-opacity="1" stroke-width="3.2"/>
<circle clip-path="url(#clip742)" cx="932.563" cy="304.767" r="14.4" fill="#008000" fill-rule="evenodd" fill-opacity="1" stroke="#000000" stroke-opacity="1" stroke-width="3.2"/>
<circle clip-path="url(#clip742)" cx="810.112" cy="223.306" r="14.4" fill="#008000" fill-rule="evenodd" fill-opacity="1" stroke="#000000" stroke-opacity="1" stroke-width="3.2"/>
<circle clip-path="url(#clip742)" cx="1061.74" cy="181.421" r="14.4" fill="#008000" fill-rule="evenodd" fill-opacity="1" stroke="#000000" stroke-opacity="1" stroke-width="3.2"/>
<circle clip-path="url(#clip742)" cx="752.063" cy="251.534" r="14.4" fill="#008000" fill-rule="evenodd" fill-opacity="1" stroke="#000000" stroke-opacity="1" stroke-width="3.2"/>
<circle clip-path="url(#clip742)" cx="846.12" cy="270.439" r="14.4" fill="#008000" fill-rule="evenodd" fill-opacity="1" stroke="#000000" stroke-opacity="1" stroke-width="3.2"/>
<circle clip-path="url(#clip742)" cx="500.645" cy="275.17" r="14.4" fill="#008000" fill-rule="evenodd" fill-opacity="1" stroke="#000000" stroke-opacity="1" stroke-width="3.2"/>
<circle clip-path="url(#clip742)" cx="502.108" cy="281.298" r="14.4" fill="#008000" fill-rule="evenodd" fill-opacity="1" stroke="#000000" stroke-opacity="1" stroke-width="3.2"/>
<circle clip-path="url(#clip742)" cx="518.219" cy="276.807" r="14.4" fill="#008000" fill-rule="evenodd" fill-opacity="1" stroke="#000000" stroke-opacity="1" stroke-width="3.2"/>
<circle clip-path="url(#clip742)" cx="284.343" cy="394.281" r="14.4" fill="#008000" fill-rule="evenodd" fill-opacity="1" stroke="#000000" stroke-opacity="1" stroke-width="3.2"/>
<circle clip-path="url(#clip742)" cx="399.664" cy="315.023" r="14.4" fill="#008000" fill-rule="evenodd" fill-opacity="1" stroke="#000000" stroke-opacity="1" stroke-width="3.2"/>
<circle clip-path="url(#clip742)" cx="504.923" cy="276.852" r="14.4" fill="#008000" fill-rule="evenodd" fill-opacity="1" stroke="#000000" stroke-opacity="1" stroke-width="3.2"/>
<circle clip-path="url(#clip742)" cx="399.664" cy="315.023" r="14.4" fill="#008000" fill-rule="evenodd" fill-opacity="1" stroke="#000000" stroke-opacity="1" stroke-width="3.2"/>
<circle clip-path="url(#clip742)" cx="358.657" cy="87.9763" r="14.4" fill="#008000" fill-rule="evenodd" fill-opacity="1" stroke="#000000" stroke-opacity="1" stroke-width="3.2"/>
<circle clip-path="url(#clip742)" cx="460.021" cy="746.791" r="14.4" fill="#008000" fill-rule="evenodd" fill-opacity="1" stroke="#000000" stroke-opacity="1" stroke-width="3.2"/>
<circle clip-path="url(#clip742)" cx="494.849" cy="279.668" r="14.4" fill="#008000" fill-rule="evenodd" fill-opacity="1" stroke="#000000" stroke-opacity="1" stroke-width="3.2"/>
<circle clip-path="url(#clip742)" cx="801.166" cy="221.809" r="14.4" fill="#008000" fill-rule="evenodd" fill-opacity="1" stroke="#000000" stroke-opacity="1" stroke-width="3.2"/>
<circle clip-path="url(#clip742)" cx="534.732" cy="627.554" r="14.4" fill="#008000" fill-rule="evenodd" fill-opacity="1" stroke="#000000" stroke-opacity="1" stroke-width="3.2"/>
<circle clip-path="url(#clip742)" cx="485.56" cy="279.49" r="14.4" fill="#008000" fill-rule="evenodd" fill-opacity="1" stroke="#000000" stroke-opacity="1" stroke-width="3.2"/>
<circle clip-path="url(#clip742)" cx="403.058" cy="250.634" r="14.4" fill="#008000" fill-rule="evenodd" fill-opacity="1" stroke="#000000" stroke-opacity="1" stroke-width="3.2"/>
<circle clip-path="url(#clip742)" cx="483.731" cy="285.112" r="14.4" fill="#008000" fill-rule="evenodd" fill-opacity="1" stroke="#000000" stroke-opacity="1" stroke-width="3.2"/>
<circle clip-path="url(#clip742)" cx="803.642" cy="207.953" r="14.4" fill="#008000" fill-rule="evenodd" fill-opacity="1" stroke="#000000" stroke-opacity="1" stroke-width="3.2"/>
<circle clip-path="url(#clip742)" cx="729.515" cy="474.949" r="14.4" fill="#008000" fill-rule="evenodd" fill-opacity="1" stroke="#000000" stroke-opacity="1" stroke-width="3.2"/>
<circle clip-path="url(#clip742)" cx="568.896" cy="514.715" r="14.4" fill="#008000" fill-rule="evenodd" fill-opacity="1" stroke="#000000" stroke-opacity="1" stroke-width="3.2"/>
<circle clip-path="url(#clip742)" cx="799.736" cy="274.05" r="14.4" fill="#008000" fill-rule="evenodd" fill-opacity="1" stroke="#000000" stroke-opacity="1" stroke-width="3.2"/>
<circle clip-path="url(#clip742)" cx="708.119" cy="339.972" r="14.4" fill="#008000" fill-rule="evenodd" fill-opacity="1" stroke="#000000" stroke-opacity="1" stroke-width="3.2"/>
<circle clip-path="url(#clip742)" cx="815.893" cy="274.838" r="14.4" fill="#008000" fill-rule="evenodd" fill-opacity="1" stroke="#000000" stroke-opacity="1" stroke-width="3.2"/>
<circle clip-path="url(#clip742)" cx="358.657" cy="87.9763" r="14.4" fill="#008000" fill-rule="evenodd" fill-opacity="1" stroke="#000000" stroke-opacity="1" stroke-width="3.2"/>
<circle clip-path="url(#clip742)" cx="494.75" cy="278.49" r="14.4" fill="#008000" fill-rule="evenodd" fill-opacity="1" stroke="#000000" stroke-opacity="1" stroke-width="3.2"/>
<circle clip-path="url(#clip742)" cx="1180.13" cy="1140.5" r="14.4" fill="#ffa500" fill-rule="evenodd" fill-opacity="1" stroke="#000000" stroke-opacity="1" stroke-width="3.2"/>
<circle clip-path="url(#clip742)" cx="915.294" cy="1239.34" r="14.4" fill="#ffa500" fill-rule="evenodd" fill-opacity="1" stroke="#000000" stroke-opacity="1" stroke-width="3.2"/>
<circle clip-path="url(#clip742)" cx="1180.13" cy="1140.5" r="14.4" fill="#ffa500" fill-rule="evenodd" fill-opacity="1" stroke="#000000" stroke-opacity="1" stroke-width="3.2"/>
<circle clip-path="url(#clip742)" cx="1082.89" cy="1284.49" r="14.4" fill="#ffa500" fill-rule="evenodd" fill-opacity="1" stroke="#000000" stroke-opacity="1" stroke-width="3.2"/>
<circle clip-path="url(#clip742)" cx="982.226" cy="1066.57" r="14.4" fill="#ffa500" fill-rule="evenodd" fill-opacity="1" stroke="#000000" stroke-opacity="1" stroke-width="3.2"/>
<circle clip-path="url(#clip742)" cx="1049.98" cy="1274.7" r="14.4" fill="#ffa500" fill-rule="evenodd" fill-opacity="1" stroke="#000000" stroke-opacity="1" stroke-width="3.2"/>
<circle clip-path="url(#clip742)" cx="915.294" cy="1239.34" r="14.4" fill="#ffa500" fill-rule="evenodd" fill-opacity="1" stroke="#000000" stroke-opacity="1" stroke-width="3.2"/>
<circle clip-path="url(#clip742)" cx="1066.65" cy="1133.39" r="14.4" fill="#ffa500" fill-rule="evenodd" fill-opacity="1" stroke="#000000" stroke-opacity="1" stroke-width="3.2"/>
<circle clip-path="url(#clip742)" cx="1292.57" cy="1146.02" r="14.4" fill="#ffa500" fill-rule="evenodd" fill-opacity="1" stroke="#000000" stroke-opacity="1" stroke-width="3.2"/>
<circle clip-path="url(#clip742)" cx="1179.01" cy="959.97" r="14.4" fill="#ffa500" fill-rule="evenodd" fill-opacity="1" stroke="#000000" stroke-opacity="1" stroke-width="3.2"/>
<circle clip-path="url(#clip742)" cx="1180.13" cy="1140.5" r="14.4" fill="#ffa500" fill-rule="evenodd" fill-opacity="1" stroke="#000000" stroke-opacity="1" stroke-width="3.2"/>
<circle clip-path="url(#clip742)" cx="922.67" cy="1146.31" r="14.4" fill="#ffa500" fill-rule="evenodd" fill-opacity="1" stroke="#000000" stroke-opacity="1" stroke-width="3.2"/>
<circle clip-path="url(#clip742)" cx="1292.37" cy="1143.79" r="14.4" fill="#ffa500" fill-rule="evenodd" fill-opacity="1" stroke="#000000" stroke-opacity="1" stroke-width="3.2"/>
<circle clip-path="url(#clip742)" cx="768.616" cy="1059.62" r="14.4" fill="#ffa500" fill-rule="evenodd" fill-opacity="1" stroke="#000000" stroke-opacity="1" stroke-width="3.2"/>
<circle clip-path="url(#clip742)" cx="1078.72" cy="1282.36" r="14.4" fill="#ffa500" fill-rule="evenodd" fill-opacity="1" stroke="#000000" stroke-opacity="1" stroke-width="3.2"/>
<circle clip-path="url(#clip742)" cx="1049.21" cy="1274.8" r="14.4" fill="#ffa500" fill-rule="evenodd" fill-opacity="1" stroke="#000000" stroke-opacity="1" stroke-width="3.2"/>
<circle clip-path="url(#clip742)" cx="1282.31" cy="1143.75" r="14.4" fill="#ffa500" fill-rule="evenodd" fill-opacity="1" stroke="#000000" stroke-opacity="1" stroke-width="3.2"/>
<circle clip-path="url(#clip742)" cx="1101.54" cy="1121.93" r="14.4" fill="#ffa500" fill-rule="evenodd" fill-opacity="1" stroke="#000000" stroke-opacity="1" stroke-width="3.2"/>
<circle clip-path="url(#clip742)" cx="957.447" cy="1074.78" r="14.4" fill="#ffa500" fill-rule="evenodd" fill-opacity="1" stroke="#000000" stroke-opacity="1" stroke-width="3.2"/>
<circle clip-path="url(#clip742)" cx="1289.83" cy="1149.19" r="14.4" fill="#ffa500" fill-rule="evenodd" fill-opacity="1" stroke="#000000" stroke-opacity="1" stroke-width="3.2"/>
<circle clip-path="url(#clip742)" cx="742.817" cy="969.123" r="14.4" fill="#0000ff" fill-rule="evenodd" fill-opacity="1" stroke="#000000" stroke-opacity="1" stroke-width="3.2"/>
<circle clip-path="url(#clip742)" cx="1344.12" cy="871.377" r="14.4" fill="#0000ff" fill-rule="evenodd" fill-opacity="1" stroke="#000000" stroke-opacity="1" stroke-width="3.2"/>
<circle clip-path="url(#clip742)" cx="752.931" cy="953.31" r="14.4" fill="#0000ff" fill-rule="evenodd" fill-opacity="1" stroke="#000000" stroke-opacity="1" stroke-width="3.2"/>
<circle clip-path="url(#clip742)" cx="819.116" cy="904.238" r="14.4" fill="#0000ff" fill-rule="evenodd" fill-opacity="1" stroke="#000000" stroke-opacity="1" stroke-width="3.2"/>
<circle clip-path="url(#clip742)" cx="786.728" cy="978.416" r="14.4" fill="#0000ff" fill-rule="evenodd" fill-opacity="1" stroke="#000000" stroke-opacity="1" stroke-width="3.2"/>
<circle clip-path="url(#clip742)" cx="879.839" cy="1198.6" r="14.4" fill="#ff0000" fill-rule="evenodd" fill-opacity="1" stroke="#000000" stroke-opacity="1" stroke-width="3.2"/>
<circle clip-path="url(#clip742)" cx="1255.74" cy="1067.39" r="14.4" fill="#ff0000" fill-rule="evenodd" fill-opacity="1" stroke="#000000" stroke-opacity="1" stroke-width="3.2"/>
<circle clip-path="url(#clip742)" cx="879.839" cy="1198.6" r="14.4" fill="#ff0000" fill-rule="evenodd" fill-opacity="1" stroke="#000000" stroke-opacity="1" stroke-width="3.2"/>
<circle clip-path="url(#clip742)" cx="879.839" cy="1198.6" r="14.4" fill="#ff0000" fill-rule="evenodd" fill-opacity="1" stroke="#000000" stroke-opacity="1" stroke-width="3.2"/>
<circle clip-path="url(#clip742)" cx="982.451" cy="1046.74" r="14.4" fill="#ff0000" fill-rule="evenodd" fill-opacity="1" stroke="#000000" stroke-opacity="1" stroke-width="3.2"/>
<circle clip-path="url(#clip742)" cx="1334.17" cy="1072.58" r="14.4" fill="#ff0000" fill-rule="evenodd" fill-opacity="1" stroke="#000000" stroke-opacity="1" stroke-width="3.2"/>
<circle clip-path="url(#clip742)" cx="879.839" cy="1198.6" r="14.4" fill="#ff0000" fill-rule="evenodd" fill-opacity="1" stroke="#000000" stroke-opacity="1" stroke-width="3.2"/>
<circle clip-path="url(#clip742)" cx="977.633" cy="1042.98" r="14.4" fill="#ff0000" fill-rule="evenodd" fill-opacity="1" stroke="#000000" stroke-opacity="1" stroke-width="3.2"/>
<circle clip-path="url(#clip742)" cx="879.839" cy="1198.6" r="14.4" fill="#ff0000" fill-rule="evenodd" fill-opacity="1" stroke="#000000" stroke-opacity="1" stroke-width="3.2"/>
<circle clip-path="url(#clip742)" cx="1308.33" cy="1071.74" r="14.4" fill="#ff0000" fill-rule="evenodd" fill-opacity="1" stroke="#000000" stroke-opacity="1" stroke-width="3.2"/>
<circle clip-path="url(#clip742)" cx="1315.36" cy="1067.78" r="14.4" fill="#ff0000" fill-rule="evenodd" fill-opacity="1" stroke="#000000" stroke-opacity="1" stroke-width="3.2"/>
<circle clip-path="url(#clip742)" cx="936.88" cy="1059.56" r="14.4" fill="#ff0000" fill-rule="evenodd" fill-opacity="1" stroke="#000000" stroke-opacity="1" stroke-width="3.2"/>
<circle clip-path="url(#clip742)" cx="982.96" cy="1038.09" r="14.4" fill="#ff0000" fill-rule="evenodd" fill-opacity="1" stroke="#000000" stroke-opacity="1" stroke-width="3.2"/>
<circle clip-path="url(#clip742)" cx="1058.93" cy="1075.9" r="14.4" fill="#ffff00" fill-rule="evenodd" fill-opacity="1" stroke="#000000" stroke-opacity="1" stroke-width="3.2"/>
<circle clip-path="url(#clip742)" cx="1021.76" cy="1101.36" r="14.4" fill="#ffff00" fill-rule="evenodd" fill-opacity="1" stroke="#000000" stroke-opacity="1" stroke-width="3.2"/>
<circle clip-path="url(#clip742)" cx="500.356" cy="1108.13" r="14.4" fill="#ffff00" fill-rule="evenodd" fill-opacity="1" stroke="#000000" stroke-opacity="1" stroke-width="3.2"/>
<circle clip-path="url(#clip742)" cx="1057.96" cy="1038.7" r="14.4" fill="#ffff00" fill-rule="evenodd" fill-opacity="1" stroke="#000000" stroke-opacity="1" stroke-width="3.2"/>
<circle clip-path="url(#clip742)" cx="2065.43" cy="1034.49" r="14.4" fill="#800080" fill-rule="evenodd" fill-opacity="1" stroke="#000000" stroke-opacity="1" stroke-width="3.2"/>
<circle clip-path="url(#clip742)" cx="1885.52" cy="1178.42" r="14.4" fill="#800080" fill-rule="evenodd" fill-opacity="1" stroke="#000000" stroke-opacity="1" stroke-width="3.2"/>
<circle clip-path="url(#clip742)" cx="2047.93" cy="890.668" r="14.4" fill="#800080" fill-rule="evenodd" fill-opacity="1" stroke="#000000" stroke-opacity="1" stroke-width="3.2"/>
<circle clip-path="url(#clip742)" cx="1940.42" cy="906.027" r="14.4" fill="#800080" fill-rule="evenodd" fill-opacity="1" stroke="#000000" stroke-opacity="1" stroke-width="3.2"/>
<circle clip-path="url(#clip742)" cx="1883.74" cy="1158.67" r="14.4" fill="#800080" fill-rule="evenodd" fill-opacity="1" stroke="#000000" stroke-opacity="1" stroke-width="3.2"/>
<circle clip-path="url(#clip742)" cx="1950.22" cy="882.77" r="14.4" fill="#800080" fill-rule="evenodd" fill-opacity="1" stroke="#000000" stroke-opacity="1" stroke-width="3.2"/>
<circle clip-path="url(#clip742)" cx="2101.77" cy="1069.04" r="14.4" fill="#800080" fill-rule="evenodd" fill-opacity="1" stroke="#000000" stroke-opacity="1" stroke-width="3.2"/>
<circle clip-path="url(#clip742)" cx="1888.82" cy="935.18" r="14.4" fill="#800080" fill-rule="evenodd" fill-opacity="1" stroke="#000000" stroke-opacity="1" stroke-width="3.2"/>
<circle clip-path="url(#clip742)" cx="2292.51" cy="1202.64" r="14.4" fill="#000000" fill-rule="evenodd" fill-opacity="1" stroke="none"/>
<circle clip-path="url(#clip742)" cx="1930.03" cy="1445.72" r="14.4" fill="#000000" fill-rule="evenodd" fill-opacity="1" stroke="none"/>
<circle clip-path="url(#clip742)" cx="1930.03" cy="1445.72" r="14.4" fill="#000000" fill-rule="evenodd" fill-opacity="1" stroke="none"/>
<circle clip-path="url(#clip742)" cx="1930.03" cy="1445.72" r="14.4" fill="#000000" fill-rule="evenodd" fill-opacity="1" stroke="none"/>
<circle clip-path="url(#clip742)" cx="1973.87" cy="1150.12" r="14.4" fill="#000000" fill-rule="evenodd" fill-opacity="1" stroke="none"/>
<circle clip-path="url(#clip742)" cx="1766.53" cy="819.021" r="14.4" fill="#000000" fill-rule="evenodd" fill-opacity="1" stroke="none"/>
<circle clip-path="url(#clip742)" cx="2258.66" cy="1263.31" r="14.4" fill="#000000" fill-rule="evenodd" fill-opacity="1" stroke="none"/>
<circle clip-path="url(#clip742)" cx="2086.91" cy="1042.75" r="14.4" fill="#000000" fill-rule="evenodd" fill-opacity="1" stroke="none"/>
<circle clip-path="url(#clip742)" cx="1930.03" cy="1445.72" r="14.4" fill="#000000" fill-rule="evenodd" fill-opacity="1" stroke="none"/>
<circle clip-path="url(#clip742)" cx="2111.09" cy="1045.52" r="14.4" fill="#000000" fill-rule="evenodd" fill-opacity="1" stroke="none"/>
<path clip-path="url(#clip740)" d="
M1758.2 509.938 L2281.8 509.938 L2281.8 95.2176 L1758.2 95.2176  Z
  " fill="#ffffff" fill-rule="evenodd" fill-opacity="1"/>
<polyline clip-path="url(#clip740)" style="stroke:#000000; stroke-linecap:round; stroke-linejoin:round; stroke-width:4; stroke-opacity:1; fill:none" points="
  1758.2,509.938 2281.8,509.938 2281.8,95.2176 1758.2,95.2176 1758.2,509.938 
  "/>
<circle clip-path="url(#clip740)" cx="1852.81" cy="147.058" r="23.04" fill="#008000" fill-rule="evenodd" fill-opacity="1" stroke="#000000" stroke-opacity="1" stroke-width="5.12"/>
<path clip-path="url(#clip740)" d="M1967.76 143.389 Q1969.36 140.518 1971.58 139.153 Q1973.8 137.787 1976.81 137.787 Q1980.86 137.787 1983.06 140.634 Q1985.26 143.458 1985.26 148.689 L1985.26 164.338 L1980.98 164.338 L1980.98 148.828 Q1980.98 145.102 1979.66 143.296 Q1978.34 141.49 1975.63 141.49 Q1972.32 141.49 1970.4 143.69 Q1968.48 145.889 1968.48 149.685 L1968.48 164.338 L1964.2 164.338 L1964.2 148.828 Q1964.2 145.078 1962.88 143.296 Q1961.56 141.49 1958.8 141.49 Q1955.54 141.49 1953.62 143.713 Q1951.7 145.912 1951.7 149.685 L1951.7 164.338 L1947.42 164.338 L1947.42 138.412 L1951.7 138.412 L1951.7 142.44 Q1953.16 140.055 1955.19 138.921 Q1957.23 137.787 1960.03 137.787 Q1962.86 137.787 1964.82 139.222 Q1966.81 140.657 1967.76 143.389 Z" fill="#000000" fill-rule="evenodd" fill-opacity="1" /><path clip-path="url(#clip740)" d="M2005.54 151.305 Q2000.38 151.305 1998.39 152.486 Q1996.4 153.666 1996.4 156.514 Q1996.4 158.782 1997.88 160.125 Q1999.38 161.444 2001.95 161.444 Q2005.49 161.444 2007.62 158.944 Q2009.78 156.421 2009.78 152.254 L2009.78 151.305 L2005.54 151.305 M2014.04 149.546 L2014.04 164.338 L2009.78 164.338 L2009.78 160.402 Q2008.32 162.763 2006.14 163.898 Q2003.97 165.009 2000.82 165.009 Q1996.84 165.009 1994.48 162.787 Q1992.14 160.541 1992.14 156.791 Q1992.14 152.416 1995.05 150.194 Q1997.99 147.972 2003.8 147.972 L2009.78 147.972 L2009.78 147.555 Q2009.78 144.615 2007.83 143.018 Q2005.91 141.398 2002.42 141.398 Q2000.19 141.398 1998.09 141.93 Q1995.98 142.463 1994.04 143.527 L1994.04 139.592 Q1996.37 138.69 1998.57 138.25 Q2000.77 137.787 2002.85 137.787 Q2008.48 137.787 2011.26 140.703 Q2014.04 143.62 2014.04 149.546 Z" fill="#000000" fill-rule="evenodd" fill-opacity="1" /><path clip-path="url(#clip740)" d="M2042.99 143.389 Q2044.59 140.518 2046.81 139.153 Q2049.04 137.787 2052.04 137.787 Q2056.1 137.787 2058.29 140.634 Q2060.49 143.458 2060.49 148.689 L2060.49 164.338 L2056.21 164.338 L2056.21 148.828 Q2056.21 145.102 2054.89 143.296 Q2053.57 141.49 2050.86 141.49 Q2047.55 141.49 2045.63 143.69 Q2043.71 145.889 2043.71 149.685 L2043.71 164.338 L2039.43 164.338 L2039.43 148.828 Q2039.43 145.078 2038.11 143.296 Q2036.79 141.49 2034.04 141.49 Q2030.77 141.49 2028.85 143.713 Q2026.93 145.912 2026.93 149.685 L2026.93 164.338 L2022.65 164.338 L2022.65 138.412 L2026.93 138.412 L2026.93 142.44 Q2028.39 140.055 2030.42 138.921 Q2032.46 137.787 2035.26 137.787 Q2038.09 137.787 2040.05 139.222 Q2042.04 140.657 2042.99 143.389 Z" fill="#000000" fill-rule="evenodd" fill-opacity="1" /><path clip-path="url(#clip740)" d="M2089.17 143.389 Q2090.77 140.518 2092.99 139.153 Q2095.22 137.787 2098.22 137.787 Q2102.28 137.787 2104.47 140.634 Q2106.67 143.458 2106.67 148.689 L2106.67 164.338 L2102.39 164.338 L2102.39 148.828 Q2102.39 145.102 2101.07 143.296 Q2099.75 141.49 2097.04 141.49 Q2093.73 141.49 2091.81 143.69 Q2089.89 145.889 2089.89 149.685 L2089.89 164.338 L2085.61 164.338 L2085.61 148.828 Q2085.61 145.078 2084.29 143.296 Q2082.97 141.49 2080.22 141.49 Q2076.95 141.49 2075.03 143.713 Q2073.11 145.912 2073.11 149.685 L2073.11 164.338 L2068.83 164.338 L2068.83 138.412 L2073.11 138.412 L2073.11 142.44 Q2074.57 140.055 2076.6 138.921 Q2078.64 137.787 2081.44 137.787 Q2084.27 137.787 2086.23 139.222 Q2088.22 140.657 2089.17 143.389 Z" fill="#000000" fill-rule="evenodd" fill-opacity="1" /><path clip-path="url(#clip740)" d="M2126.95 151.305 Q2121.79 151.305 2119.8 152.486 Q2117.81 153.666 2117.81 156.514 Q2117.81 158.782 2119.29 160.125 Q2120.79 161.444 2123.36 161.444 Q2126.91 161.444 2129.03 158.944 Q2131.19 156.421 2131.19 152.254 L2131.19 151.305 L2126.95 151.305 M2135.45 149.546 L2135.45 164.338 L2131.19 164.338 L2131.19 160.402 Q2129.73 162.763 2127.55 163.898 Q2125.38 165.009 2122.23 165.009 Q2118.25 165.009 2115.89 162.787 Q2113.55 160.541 2113.55 156.791 Q2113.55 152.416 2116.47 150.194 Q2119.41 147.972 2125.22 147.972 L2131.19 147.972 L2131.19 147.555 Q2131.19 144.615 2129.24 143.018 Q2127.32 141.398 2123.83 141.398 Q2121.6 141.398 2119.5 141.93 Q2117.39 142.463 2115.45 143.527 L2115.45 139.592 Q2117.78 138.69 2119.98 138.25 Q2122.18 137.787 2124.27 137.787 Q2129.89 137.787 2132.67 140.703 Q2135.45 143.62 2135.45 149.546 Z" fill="#000000" fill-rule="evenodd" fill-opacity="1" /><path clip-path="url(#clip740)" d="M2144.22 128.319 L2148.48 128.319 L2148.48 164.338 L2144.22 164.338 L2144.22 128.319 Z" fill="#000000" fill-rule="evenodd" fill-opacity="1" /><circle clip-path="url(#clip740)" cx="1852.81" cy="198.898" r="23.04" fill="#ffa500" fill-rule="evenodd" fill-opacity="1" stroke="#000000" stroke-opacity="1" stroke-width="5.12"/>
<path clip-path="url(#clip740)" d="M1966.19 203.238 Q1966.19 198.539 1964.24 195.877 Q1962.32 193.192 1958.94 193.192 Q1955.56 193.192 1953.62 195.877 Q1951.7 198.539 1951.7 203.238 Q1951.7 207.937 1953.62 210.622 Q1955.56 213.284 1958.94 213.284 Q1962.32 213.284 1964.24 210.622 Q1966.19 207.937 1966.19 203.238 M1951.7 194.187 Q1953.04 191.872 1955.08 190.761 Q1957.14 189.627 1959.98 189.627 Q1964.71 189.627 1967.65 193.377 Q1970.61 197.127 1970.61 203.238 Q1970.61 209.349 1967.65 213.099 Q1964.71 216.849 1959.98 216.849 Q1957.14 216.849 1955.08 215.738 Q1953.04 214.603 1951.7 212.289 L1951.7 216.178 L1947.42 216.178 L1947.42 180.159 L1951.7 180.159 L1951.7 194.187 Z" fill="#000000" fill-rule="evenodd" fill-opacity="1" /><path clip-path="url(#clip740)" d="M1977.67 190.252 L1981.93 190.252 L1981.93 216.178 L1977.67 216.178 L1977.67 190.252 M1977.67 180.159 L1981.93 180.159 L1981.93 185.553 L1977.67 185.553 L1977.67 180.159 Z" fill="#000000" fill-rule="evenodd" fill-opacity="1" /><path clip-path="url(#clip740)" d="M2005.86 194.233 Q2005.15 193.817 2004.29 193.631 Q2003.46 193.423 2002.44 193.423 Q1998.83 193.423 1996.88 195.784 Q1994.96 198.122 1994.96 202.52 L1994.96 216.178 L1990.68 216.178 L1990.68 190.252 L1994.96 190.252 L1994.96 194.28 Q1996.3 191.918 1998.46 190.784 Q2000.61 189.627 2003.69 189.627 Q2004.13 189.627 2004.66 189.696 Q2005.19 189.743 2005.84 189.858 L2005.86 194.233 Z" fill="#000000" fill-rule="evenodd" fill-opacity="1" /><path clip-path="url(#clip740)" d="M2026.56 194.187 L2026.56 180.159 L2030.82 180.159 L2030.82 216.178 L2026.56 216.178 L2026.56 212.289 Q2025.22 214.603 2023.16 215.738 Q2021.12 216.849 2018.25 216.849 Q2013.55 216.849 2010.59 213.099 Q2007.65 209.349 2007.65 203.238 Q2007.65 197.127 2010.59 193.377 Q2013.55 189.627 2018.25 189.627 Q2021.12 189.627 2023.16 190.761 Q2025.22 191.872 2026.56 194.187 M2012.04 203.238 Q2012.04 207.937 2013.97 210.622 Q2015.91 213.284 2019.29 213.284 Q2022.67 213.284 2024.61 210.622 Q2026.56 207.937 2026.56 203.238 Q2026.56 198.539 2024.61 195.877 Q2022.67 193.192 2019.29 193.192 Q2015.91 193.192 2013.97 195.877 Q2012.04 198.539 2012.04 203.238 Z" fill="#000000" fill-rule="evenodd" fill-opacity="1" /><circle clip-path="url(#clip740)" cx="1852.81" cy="250.738" r="23.04" fill="#0000ff" fill-rule="evenodd" fill-opacity="1" stroke="#000000" stroke-opacity="1" stroke-width="5.12"/>
<path clip-path="url(#clip740)" d="M1962.6 246.073 Q1961.88 245.657 1961.03 245.471 Q1960.19 245.263 1959.17 245.263 Q1955.56 245.263 1953.62 247.624 Q1951.7 249.962 1951.7 254.36 L1951.7 268.018 L1947.42 268.018 L1947.42 242.092 L1951.7 242.092 L1951.7 246.12 Q1953.04 243.758 1955.19 242.624 Q1957.35 241.467 1960.42 241.467 Q1960.86 241.467 1961.4 241.536 Q1961.93 241.583 1962.58 241.698 L1962.6 246.073 Z" fill="#000000" fill-rule="evenodd" fill-opacity="1" /><path clip-path="url(#clip740)" d="M1988.2 253.99 L1988.2 256.073 L1968.62 256.073 Q1968.9 260.471 1971.26 262.786 Q1973.64 265.078 1977.88 265.078 Q1980.33 265.078 1982.62 264.476 Q1984.94 263.874 1987.21 262.67 L1987.21 266.698 Q1984.92 267.67 1982.51 268.18 Q1980.1 268.689 1977.62 268.689 Q1971.42 268.689 1967.79 265.078 Q1964.17 261.467 1964.17 255.309 Q1964.17 248.944 1967.6 245.217 Q1971.05 241.467 1976.88 241.467 Q1982.11 241.467 1985.15 244.846 Q1988.2 248.203 1988.2 253.99 M1983.94 252.74 Q1983.9 249.245 1981.98 247.161 Q1980.08 245.078 1976.93 245.078 Q1973.36 245.078 1971.21 247.092 Q1969.08 249.106 1968.76 252.763 L1983.94 252.74 Z" fill="#000000" fill-rule="evenodd" fill-opacity="1" /><path clip-path="url(#clip740)" d="M1999.31 264.129 L1999.31 277.879 L1995.03 277.879 L1995.03 242.092 L1999.31 242.092 L1999.31 246.027 Q2000.66 243.712 2002.69 242.601 Q2004.75 241.467 2007.6 241.467 Q2012.32 241.467 2015.26 245.217 Q2018.23 248.967 2018.23 255.078 Q2018.23 261.189 2015.26 264.939 Q2012.32 268.689 2007.6 268.689 Q2004.75 268.689 2002.69 267.578 Q2000.66 266.443 1999.31 264.129 M2013.8 255.078 Q2013.8 250.379 2011.86 247.717 Q2009.94 245.032 2006.56 245.032 Q2003.18 245.032 2001.23 247.717 Q1999.31 250.379 1999.31 255.078 Q1999.31 259.777 2001.23 262.462 Q2003.18 265.124 2006.56 265.124 Q2009.94 265.124 2011.86 262.462 Q2013.8 259.777 2013.8 255.078 Z" fill="#000000" fill-rule="evenodd" fill-opacity="1" /><path clip-path="url(#clip740)" d="M2029.5 234.731 L2029.5 242.092 L2038.27 242.092 L2038.27 245.402 L2029.5 245.402 L2029.5 259.476 Q2029.5 262.647 2030.35 263.55 Q2031.23 264.453 2033.9 264.453 L2038.27 264.453 L2038.27 268.018 L2033.9 268.018 Q2028.97 268.018 2027.09 266.189 Q2025.22 264.337 2025.22 259.476 L2025.22 245.402 L2022.09 245.402 L2022.09 242.092 L2025.22 242.092 L2025.22 234.731 L2029.5 234.731 Z" fill="#000000" fill-rule="evenodd" fill-opacity="1" /><path clip-path="url(#clip740)" d="M2043.87 242.092 L2048.13 242.092 L2048.13 268.018 L2043.87 268.018 L2043.87 242.092 M2043.87 231.999 L2048.13 231.999 L2048.13 237.393 L2043.87 237.393 L2043.87 231.999 Z" fill="#000000" fill-rule="evenodd" fill-opacity="1" /><path clip-path="url(#clip740)" d="M2057.04 231.999 L2061.3 231.999 L2061.3 268.018 L2057.04 268.018 L2057.04 231.999 Z" fill="#000000" fill-rule="evenodd" fill-opacity="1" /><path clip-path="url(#clip740)" d="M2092.39 253.99 L2092.39 256.073 L2072.81 256.073 Q2073.09 260.471 2075.45 262.786 Q2077.83 265.078 2082.07 265.078 Q2084.52 265.078 2086.81 264.476 Q2089.13 263.874 2091.4 262.67 L2091.4 266.698 Q2089.1 267.67 2086.7 268.18 Q2084.29 268.689 2081.81 268.689 Q2075.61 268.689 2071.97 265.078 Q2068.36 261.467 2068.36 255.309 Q2068.36 248.944 2071.79 245.217 Q2075.24 241.467 2081.07 241.467 Q2086.3 241.467 2089.34 244.846 Q2092.39 248.203 2092.39 253.99 M2088.13 252.74 Q2088.09 249.245 2086.16 247.161 Q2084.27 245.078 2081.12 245.078 Q2077.55 245.078 2075.4 247.092 Q2073.27 249.106 2072.95 252.763 L2088.13 252.74 Z" fill="#000000" fill-rule="evenodd" fill-opacity="1" /><circle clip-path="url(#clip740)" cx="1852.81" cy="302.578" r="23.04" fill="#ff0000" fill-rule="evenodd" fill-opacity="1" stroke="#000000" stroke-opacity="1" stroke-width="5.12"/>
<path clip-path="url(#clip740)" d="M1963.92 283.839 L1963.92 287.381 L1959.85 287.381 Q1957.55 287.381 1956.65 288.307 Q1955.77 289.233 1955.77 291.64 L1955.77 293.932 L1962.79 293.932 L1962.79 297.242 L1955.77 297.242 L1955.77 319.858 L1951.49 319.858 L1951.49 297.242 L1947.42 297.242 L1947.42 293.932 L1951.49 293.932 L1951.49 292.126 Q1951.49 287.798 1953.5 285.83 Q1955.52 283.839 1959.89 283.839 L1963.92 283.839 Z" fill="#000000" fill-rule="evenodd" fill-opacity="1" /><path clip-path="url(#clip740)" d="M1967.48 293.932 L1971.74 293.932 L1971.74 319.858 L1967.48 319.858 L1967.48 293.932 M1967.48 283.839 L1971.74 283.839 L1971.74 289.233 L1967.48 289.233 L1967.48 283.839 Z" fill="#000000" fill-rule="evenodd" fill-opacity="1" /><path clip-path="url(#clip740)" d="M1997.18 294.696 L1997.18 298.723 Q1995.38 297.797 1993.43 297.335 Q1991.49 296.872 1989.41 296.872 Q1986.23 296.872 1984.64 297.844 Q1983.06 298.816 1983.06 300.76 Q1983.06 302.242 1984.2 303.098 Q1985.33 303.932 1988.76 304.696 L1990.22 305.02 Q1994.75 305.992 1996.65 307.774 Q1998.57 309.534 1998.57 312.705 Q1998.57 316.316 1995.7 318.422 Q1992.85 320.529 1987.85 320.529 Q1985.77 320.529 1983.5 320.112 Q1981.26 319.719 1978.76 318.908 L1978.76 314.51 Q1981.12 315.737 1983.41 316.362 Q1985.7 316.964 1987.95 316.964 Q1990.96 316.964 1992.58 315.946 Q1994.2 314.904 1994.2 313.029 Q1994.2 311.293 1993.02 310.367 Q1991.86 309.441 1987.9 308.584 L1986.42 308.237 Q1982.46 307.404 1980.7 305.691 Q1978.94 303.955 1978.94 300.946 Q1978.94 297.288 1981.54 295.298 Q1984.13 293.307 1988.9 293.307 Q1991.26 293.307 1993.34 293.654 Q1995.42 294.001 1997.18 294.696 Z" fill="#000000" fill-rule="evenodd" fill-opacity="1" /><path clip-path="url(#clip740)" d="M2026.91 304.209 L2026.91 319.858 L2022.65 319.858 L2022.65 304.348 Q2022.65 300.668 2021.21 298.839 Q2019.78 297.01 2016.91 297.01 Q2013.46 297.01 2011.47 299.21 Q2009.48 301.409 2009.48 305.205 L2009.48 319.858 L2005.19 319.858 L2005.19 283.839 L2009.48 283.839 L2009.48 297.96 Q2011 295.622 2013.06 294.464 Q2015.15 293.307 2017.85 293.307 Q2022.32 293.307 2024.61 296.085 Q2026.91 298.839 2026.91 304.209 Z" fill="#000000" fill-rule="evenodd" fill-opacity="1" /><circle clip-path="url(#clip740)" cx="1852.81" cy="354.418" r="23.04" fill="#ffff00" fill-rule="evenodd" fill-opacity="1" stroke="#000000" stroke-opacity="1" stroke-width="5.12"/>
<path clip-path="url(#clip740)" d="M1960.82 358.665 Q1955.66 358.665 1953.67 359.846 Q1951.67 361.026 1951.67 363.874 Q1951.67 366.142 1953.16 367.485 Q1954.66 368.804 1957.23 368.804 Q1960.77 368.804 1962.9 366.304 Q1965.05 363.781 1965.05 359.614 L1965.05 358.665 L1960.82 358.665 M1969.31 356.906 L1969.31 371.698 L1965.05 371.698 L1965.05 367.762 Q1963.6 370.123 1961.42 371.258 Q1959.24 372.369 1956.1 372.369 Q1952.11 372.369 1949.75 370.147 Q1947.42 367.901 1947.42 364.151 Q1947.42 359.776 1950.33 357.554 Q1953.27 355.332 1959.08 355.332 L1965.05 355.332 L1965.05 354.915 Q1965.05 351.975 1963.11 350.378 Q1961.19 348.758 1957.69 348.758 Q1955.47 348.758 1953.36 349.29 Q1951.26 349.823 1949.31 350.887 L1949.31 346.952 Q1951.65 346.05 1953.85 345.61 Q1956.05 345.147 1958.13 345.147 Q1963.76 345.147 1966.54 348.063 Q1969.31 350.98 1969.31 356.906 Z" fill="#000000" fill-rule="evenodd" fill-opacity="1" /><path clip-path="url(#clip740)" d="M1998.27 350.749 Q1999.87 347.878 2002.09 346.513 Q2004.31 345.147 2007.32 345.147 Q2011.37 345.147 2013.57 347.994 Q2015.77 350.818 2015.77 356.049 L2015.77 371.698 L2011.49 371.698 L2011.49 356.188 Q2011.49 352.462 2010.17 350.656 Q2008.85 348.85 2006.14 348.85 Q2002.83 348.85 2000.91 351.05 Q1998.99 353.249 1998.99 357.045 L1998.99 371.698 L1994.71 371.698 L1994.71 356.188 Q1994.71 352.438 1993.39 350.656 Q1992.07 348.85 1989.31 348.85 Q1986.05 348.85 1984.13 351.073 Q1982.21 353.272 1982.21 357.045 L1982.21 371.698 L1977.92 371.698 L1977.92 345.772 L1982.21 345.772 L1982.21 349.8 Q1983.67 347.415 1985.7 346.281 Q1987.74 345.147 1990.54 345.147 Q1993.36 345.147 1995.33 346.582 Q1997.32 348.017 1998.27 350.749 Z" fill="#000000" fill-rule="evenodd" fill-opacity="1" /><path clip-path="url(#clip740)" d="M2028.39 367.809 L2028.39 381.559 L2024.1 381.559 L2024.1 345.772 L2028.39 345.772 L2028.39 349.707 Q2029.73 347.392 2031.77 346.281 Q2033.83 345.147 2036.67 345.147 Q2041.4 345.147 2044.34 348.897 Q2047.3 352.647 2047.3 358.758 Q2047.3 364.869 2044.34 368.619 Q2041.4 372.369 2036.67 372.369 Q2033.83 372.369 2031.77 371.258 Q2029.73 370.123 2028.39 367.809 M2042.88 358.758 Q2042.88 354.059 2040.93 351.397 Q2039.01 348.712 2035.63 348.712 Q2032.25 348.712 2030.31 351.397 Q2028.39 354.059 2028.39 358.758 Q2028.39 363.457 2030.31 366.142 Q2032.25 368.804 2035.63 368.804 Q2039.01 368.804 2040.93 366.142 Q2042.88 363.457 2042.88 358.758 Z" fill="#000000" fill-rule="evenodd" fill-opacity="1" /><path clip-path="url(#clip740)" d="M2075.91 356.049 L2075.91 371.698 L2071.65 371.698 L2071.65 356.188 Q2071.65 352.508 2070.22 350.679 Q2068.78 348.85 2065.91 348.85 Q2062.46 348.85 2060.47 351.05 Q2058.48 353.249 2058.48 357.045 L2058.48 371.698 L2054.2 371.698 L2054.2 335.679 L2058.48 335.679 L2058.48 349.8 Q2060.01 347.462 2062.07 346.304 Q2064.15 345.147 2066.86 345.147 Q2071.33 345.147 2073.62 347.925 Q2075.91 350.679 2075.91 356.049 Z" fill="#000000" fill-rule="evenodd" fill-opacity="1" /><path clip-path="url(#clip740)" d="M2084.41 345.772 L2088.66 345.772 L2088.66 371.698 L2084.41 371.698 L2084.41 345.772 M2084.41 335.679 L2088.66 335.679 L2088.66 341.073 L2084.41 341.073 L2084.41 335.679 Z" fill="#000000" fill-rule="evenodd" fill-opacity="1" /><path clip-path="url(#clip740)" d="M2116.19 358.758 Q2116.19 354.059 2114.24 351.397 Q2112.32 348.712 2108.94 348.712 Q2105.56 348.712 2103.62 351.397 Q2101.7 354.059 2101.7 358.758 Q2101.7 363.457 2103.62 366.142 Q2105.56 368.804 2108.94 368.804 Q2112.32 368.804 2114.24 366.142 Q2116.19 363.457 2116.19 358.758 M2101.7 349.707 Q2103.04 347.392 2105.08 346.281 Q2107.14 345.147 2109.98 345.147 Q2114.71 345.147 2117.65 348.897 Q2120.61 352.647 2120.61 358.758 Q2120.61 364.869 2117.65 368.619 Q2114.71 372.369 2109.98 372.369 Q2107.14 372.369 2105.08 371.258 Q2103.04 370.123 2101.7 367.809 L2101.7 371.698 L2097.41 371.698 L2097.41 335.679 L2101.7 335.679 L2101.7 349.707 Z" fill="#000000" fill-rule="evenodd" fill-opacity="1" /><path clip-path="url(#clip740)" d="M2127.67 345.772 L2131.93 345.772 L2131.93 371.698 L2127.67 371.698 L2127.67 345.772 M2127.67 335.679 L2131.93 335.679 L2131.93 341.073 L2127.67 341.073 L2127.67 335.679 Z" fill="#000000" fill-rule="evenodd" fill-opacity="1" /><path clip-path="url(#clip740)" d="M2152.62 358.665 Q2147.46 358.665 2145.47 359.846 Q2143.48 361.026 2143.48 363.874 Q2143.48 366.142 2144.96 367.485 Q2146.47 368.804 2149.03 368.804 Q2152.58 368.804 2154.71 366.304 Q2156.86 363.781 2156.86 359.614 L2156.86 358.665 L2152.62 358.665 M2161.12 356.906 L2161.12 371.698 L2156.86 371.698 L2156.86 367.762 Q2155.4 370.123 2153.22 371.258 Q2151.05 372.369 2147.9 372.369 Q2143.92 372.369 2141.56 370.147 Q2139.22 367.901 2139.22 364.151 Q2139.22 359.776 2142.14 357.554 Q2145.08 355.332 2150.89 355.332 L2156.86 355.332 L2156.86 354.915 Q2156.86 351.975 2154.91 350.378 Q2152.99 348.758 2149.5 348.758 Q2147.28 348.758 2145.17 349.29 Q2143.06 349.823 2141.12 350.887 L2141.12 346.952 Q2143.46 346.05 2145.66 345.61 Q2147.85 345.147 2149.94 345.147 Q2155.56 345.147 2158.34 348.063 Q2161.12 350.98 2161.12 356.906 Z" fill="#000000" fill-rule="evenodd" fill-opacity="1" /><path clip-path="url(#clip740)" d="M2191.44 356.049 L2191.44 371.698 L2187.18 371.698 L2187.18 356.188 Q2187.18 352.508 2185.75 350.679 Q2184.31 348.85 2181.44 348.85 Q2177.99 348.85 2176 351.05 Q2174.01 353.249 2174.01 357.045 L2174.01 371.698 L2169.73 371.698 L2169.73 345.772 L2174.01 345.772 L2174.01 349.8 Q2175.54 347.462 2177.6 346.304 Q2179.68 345.147 2182.39 345.147 Q2186.86 345.147 2189.15 347.925 Q2191.44 350.679 2191.44 356.049 Z" fill="#000000" fill-rule="evenodd" fill-opacity="1" /><circle clip-path="url(#clip740)" cx="1852.81" cy="406.258" r="23.04" fill="#800080" fill-rule="evenodd" fill-opacity="1" stroke="#000000" stroke-opacity="1" stroke-width="5.12"/>
<path clip-path="url(#clip740)" d="M1966.19 410.598 Q1966.19 405.899 1964.24 403.237 Q1962.32 400.552 1958.94 400.552 Q1955.56 400.552 1953.62 403.237 Q1951.7 405.899 1951.7 410.598 Q1951.7 415.297 1953.62 417.982 Q1955.56 420.644 1958.94 420.644 Q1962.32 420.644 1964.24 417.982 Q1966.19 415.297 1966.19 410.598 M1951.7 401.547 Q1953.04 399.232 1955.08 398.121 Q1957.14 396.987 1959.98 396.987 Q1964.71 396.987 1967.65 400.737 Q1970.61 404.487 1970.61 410.598 Q1970.61 416.709 1967.65 420.459 Q1964.71 424.209 1959.98 424.209 Q1957.14 424.209 1955.08 423.098 Q1953.04 421.963 1951.7 419.649 L1951.7 423.538 L1947.42 423.538 L1947.42 387.519 L1951.7 387.519 L1951.7 401.547 Z" fill="#000000" fill-rule="evenodd" fill-opacity="1" /><path clip-path="url(#clip740)" d="M1977.23 413.306 L1977.23 397.612 L1981.49 397.612 L1981.49 413.144 Q1981.49 416.825 1982.92 418.676 Q1984.36 420.505 1987.23 420.505 Q1990.68 420.505 1992.67 418.306 Q1994.68 416.107 1994.68 412.311 L1994.68 397.612 L1998.94 397.612 L1998.94 423.538 L1994.68 423.538 L1994.68 419.556 Q1993.13 421.917 1991.07 423.075 Q1989.04 424.209 1986.33 424.209 Q1981.86 424.209 1979.54 421.431 Q1977.23 418.653 1977.23 413.306 M1987.95 396.987 L1987.95 396.987 Z" fill="#000000" fill-rule="evenodd" fill-opacity="1" /><path clip-path="url(#clip740)" d="M2024.78 410.274 Q2024.78 405.644 2022.85 403.098 Q2020.96 400.552 2017.51 400.552 Q2014.08 400.552 2012.16 403.098 Q2010.26 405.644 2010.26 410.274 Q2010.26 414.88 2012.16 417.426 Q2014.08 419.973 2017.51 419.973 Q2020.96 419.973 2022.85 417.426 Q2024.78 414.88 2024.78 410.274 M2029.04 420.32 Q2029.04 426.94 2026.1 430.158 Q2023.16 433.399 2017.09 433.399 Q2014.85 433.399 2012.85 433.051 Q2010.86 432.727 2008.99 432.033 L2008.99 427.889 Q2010.86 428.908 2012.69 429.394 Q2014.52 429.88 2016.42 429.88 Q2020.61 429.88 2022.69 427.681 Q2024.78 425.505 2024.78 421.084 L2024.78 418.977 Q2023.46 421.269 2021.4 422.403 Q2019.34 423.538 2016.47 423.538 Q2011.7 423.538 2008.78 419.903 Q2005.86 416.269 2005.86 410.274 Q2005.86 404.255 2008.78 400.621 Q2011.7 396.987 2016.47 396.987 Q2019.34 396.987 2021.4 398.121 Q2023.46 399.255 2024.78 401.547 L2024.78 397.612 L2029.04 397.612 L2029.04 420.32 Z" fill="#000000" fill-rule="evenodd" fill-opacity="1" /><circle clip-path="url(#clip740)" cx="1852.81" cy="458.098" r="23.04" fill="#000000" fill-rule="evenodd" fill-opacity="1" stroke="none"/>
<path clip-path="url(#clip740)" d="M1947.42 449.452 L1951.67 449.452 L1951.67 475.378 L1947.42 475.378 L1947.42 449.452 M1947.42 439.359 L1951.67 439.359 L1951.67 444.753 L1947.42 444.753 L1947.42 439.359 Z" fill="#000000" fill-rule="evenodd" fill-opacity="1" /><path clip-path="url(#clip740)" d="M1982.14 459.729 L1982.14 475.378 L1977.88 475.378 L1977.88 459.868 Q1977.88 456.188 1976.44 454.359 Q1975.01 452.53 1972.14 452.53 Q1968.69 452.53 1966.7 454.73 Q1964.71 456.929 1964.71 460.725 L1964.71 475.378 L1960.42 475.378 L1960.42 449.452 L1964.71 449.452 L1964.71 453.48 Q1966.23 451.142 1968.29 449.984 Q1970.38 448.827 1973.09 448.827 Q1977.55 448.827 1979.85 451.605 Q1982.14 454.359 1982.14 459.729 Z" fill="#000000" fill-rule="evenodd" fill-opacity="1" /><path clip-path="url(#clip740)" d="M1987.58 449.452 L1992.09 449.452 L2000.19 471.211 L2008.29 449.452 L2012.81 449.452 L2003.09 475.378 L1997.3 475.378 L1987.58 449.452 Z" fill="#000000" fill-rule="evenodd" fill-opacity="1" /><path clip-path="url(#clip740)" d="M2040.86 461.35 L2040.86 463.433 L2021.28 463.433 Q2021.56 467.831 2023.92 470.146 Q2026.3 472.438 2030.54 472.438 Q2032.99 472.438 2035.29 471.836 Q2037.6 471.234 2039.87 470.03 L2039.87 474.058 Q2037.58 475.03 2035.17 475.54 Q2032.76 476.049 2030.29 476.049 Q2024.08 476.049 2020.45 472.438 Q2016.84 468.827 2016.84 462.669 Q2016.84 456.304 2020.26 452.577 Q2023.71 448.827 2029.54 448.827 Q2034.78 448.827 2037.81 452.206 Q2040.86 455.563 2040.86 461.35 M2036.6 460.1 Q2036.56 456.605 2034.64 454.521 Q2032.74 452.438 2029.59 452.438 Q2026.03 452.438 2023.87 454.452 Q2021.74 456.466 2021.42 460.123 L2036.6 460.1 Z" fill="#000000" fill-rule="evenodd" fill-opacity="1" /><path clip-path="url(#clip740)" d="M2062.88 453.433 Q2062.16 453.017 2061.3 452.831 Q2060.47 452.623 2059.45 452.623 Q2055.84 452.623 2053.9 454.984 Q2051.97 457.322 2051.97 461.72 L2051.97 475.378 L2047.69 475.378 L2047.69 449.452 L2051.97 449.452 L2051.97 453.48 Q2053.32 451.118 2055.47 449.984 Q2057.62 448.827 2060.7 448.827 Q2061.14 448.827 2061.67 448.896 Q2062.21 448.943 2062.85 449.058 L2062.88 453.433 Z" fill="#000000" fill-rule="evenodd" fill-opacity="1" /><path clip-path="url(#clip740)" d="M2071.56 442.091 L2071.56 449.452 L2080.33 449.452 L2080.33 452.762 L2071.56 452.762 L2071.56 466.836 Q2071.56 470.007 2072.41 470.91 Q2073.29 471.813 2075.96 471.813 L2080.33 471.813 L2080.33 475.378 L2075.96 475.378 Q2071.03 475.378 2069.15 473.549 Q2067.28 471.697 2067.28 466.836 L2067.28 452.762 L2064.15 452.762 L2064.15 449.452 L2067.28 449.452 L2067.28 442.091 L2071.56 442.091 Z" fill="#000000" fill-rule="evenodd" fill-opacity="1" /><path clip-path="url(#clip740)" d="M2108.11 461.35 L2108.11 463.433 L2088.53 463.433 Q2088.8 467.831 2091.16 470.146 Q2093.55 472.438 2097.78 472.438 Q2100.24 472.438 2102.53 471.836 Q2104.85 471.234 2107.11 470.03 L2107.11 474.058 Q2104.82 475.03 2102.41 475.54 Q2100.01 476.049 2097.53 476.049 Q2091.33 476.049 2087.69 472.438 Q2084.08 468.827 2084.08 462.669 Q2084.08 456.304 2087.51 452.577 Q2090.96 448.827 2096.79 448.827 Q2102.02 448.827 2105.05 452.206 Q2108.11 455.563 2108.11 461.35 M2103.85 460.1 Q2103.8 456.605 2101.88 454.521 Q2099.98 452.438 2096.84 452.438 Q2093.27 452.438 2091.12 454.452 Q2088.99 456.466 2088.66 460.123 L2103.85 460.1 Z" fill="#000000" fill-rule="evenodd" fill-opacity="1" /><path clip-path="url(#clip740)" d="M2133.71 462.438 Q2133.71 457.739 2131.77 455.077 Q2129.84 452.392 2126.47 452.392 Q2123.09 452.392 2121.14 455.077 Q2119.22 457.739 2119.22 462.438 Q2119.22 467.137 2121.14 469.822 Q2123.09 472.484 2126.47 472.484 Q2129.84 472.484 2131.77 469.822 Q2133.71 467.137 2133.71 462.438 M2119.22 453.387 Q2120.56 451.072 2122.6 449.961 Q2124.66 448.827 2127.51 448.827 Q2132.23 448.827 2135.17 452.577 Q2138.13 456.327 2138.13 462.438 Q2138.13 468.549 2135.17 472.299 Q2132.23 476.049 2127.51 476.049 Q2124.66 476.049 2122.6 474.938 Q2120.56 473.803 2119.22 471.489 L2119.22 475.378 L2114.94 475.378 L2114.94 439.359 L2119.22 439.359 L2119.22 453.387 Z" fill="#000000" fill-rule="evenodd" fill-opacity="1" /><path clip-path="url(#clip740)" d="M2160.22 453.433 Q2159.5 453.017 2158.64 452.831 Q2157.81 452.623 2156.79 452.623 Q2153.18 452.623 2151.23 454.984 Q2149.31 457.322 2149.31 461.72 L2149.31 475.378 L2145.03 475.378 L2145.03 449.452 L2149.31 449.452 L2149.31 453.48 Q2150.65 451.118 2152.81 449.984 Q2154.96 448.827 2158.04 448.827 Q2158.48 448.827 2159.01 448.896 Q2159.54 448.943 2160.19 449.058 L2160.22 453.433 Z" fill="#000000" fill-rule="evenodd" fill-opacity="1" /><path clip-path="url(#clip740)" d="M2176.47 462.345 Q2171.3 462.345 2169.31 463.526 Q2167.32 464.706 2167.32 467.554 Q2167.32 469.822 2168.8 471.165 Q2170.31 472.484 2172.88 472.484 Q2176.42 472.484 2178.55 469.984 Q2180.7 467.461 2180.7 463.294 L2180.7 462.345 L2176.47 462.345 M2184.96 460.586 L2184.96 475.378 L2180.7 475.378 L2180.7 471.442 Q2179.24 473.803 2177.07 474.938 Q2174.89 476.049 2171.74 476.049 Q2167.76 476.049 2165.4 473.827 Q2163.06 471.581 2163.06 467.831 Q2163.06 463.456 2165.98 461.234 Q2168.92 459.012 2174.73 459.012 L2180.7 459.012 L2180.7 458.595 Q2180.7 455.655 2178.76 454.058 Q2176.84 452.438 2173.34 452.438 Q2171.12 452.438 2169.01 452.97 Q2166.9 453.503 2164.96 454.567 L2164.96 450.632 Q2167.3 449.73 2169.5 449.29 Q2171.7 448.827 2173.78 448.827 Q2179.4 448.827 2182.18 451.743 Q2184.96 454.66 2184.96 460.586 Z" fill="#000000" fill-rule="evenodd" fill-opacity="1" /><path clip-path="url(#clip740)" d="M2197.95 442.091 L2197.95 449.452 L2206.72 449.452 L2206.72 452.762 L2197.95 452.762 L2197.95 466.836 Q2197.95 470.007 2198.8 470.91 Q2199.68 471.813 2202.34 471.813 L2206.72 471.813 L2206.72 475.378 L2202.34 475.378 Q2197.41 475.378 2195.54 473.549 Q2193.66 471.697 2193.66 466.836 L2193.66 452.762 L2190.54 452.762 L2190.54 449.452 L2193.66 449.452 L2193.66 442.091 L2197.95 442.091 Z" fill="#000000" fill-rule="evenodd" fill-opacity="1" /><path clip-path="url(#clip740)" d="M2234.5 461.35 L2234.5 463.433 L2214.91 463.433 Q2215.19 467.831 2217.55 470.146 Q2219.94 472.438 2224.17 472.438 Q2226.63 472.438 2228.92 471.836 Q2231.23 471.234 2233.5 470.03 L2233.5 474.058 Q2231.21 475.03 2228.8 475.54 Q2226.4 476.049 2223.92 476.049 Q2217.71 476.049 2214.08 472.438 Q2210.47 468.827 2210.47 462.669 Q2210.47 456.304 2213.9 452.577 Q2217.34 448.827 2223.18 448.827 Q2228.41 448.827 2231.44 452.206 Q2234.5 455.563 2234.5 461.35 M2230.24 460.1 Q2230.19 456.605 2228.27 454.521 Q2226.37 452.438 2223.22 452.438 Q2219.66 452.438 2217.51 454.452 Q2215.38 456.466 2215.05 460.123 L2230.24 460.1 Z" fill="#000000" fill-rule="evenodd" fill-opacity="1" /></svg>
